<svg xmlns="http://www.w3.org/2000/svg" xmlns:xlink="http://www.w3.org/1999/xlink" width="24" height="24" viewBox="0 0 24 24">
  <defs>
    <linearGradient id="linear-gradient" x1="0.5" x2="0.5" y2="1" gradientUnits="objectBoundingBox">
      <stop offset="0" stop-color="#4a4561"/>
      <stop offset="1" stop-color="#262636"/>
    </linearGradient>
  </defs>
  <path id="Exclusion_1" data-name="Exclusion 1" d="M-4410.833,1022.767h-12.8a5.606,5.606,0,0,1-5.6-5.6v-12.8a5.606,5.606,0,0,1,5.6-5.6h12.8a5.606,5.606,0,0,1,5.6,5.6v12.8A5.606,5.606,0,0,1-4410.833,1022.767Zm-11.11-15.745a.312.312,0,0,1,.257.111.355.355,0,0,1,.047.307c-.831,2.694-.87,8.493.651,10.553a1.684,1.684,0,0,0,1.372.782c1.45,0,3.323-1.613,4.889-4.209a18.023,18.023,0,0,0,2.646-8.992c0-1.992-1.129-3.063-2.245-3.091h-.051c-.83,0-1.749.671-1.8,2.145,1.075.489,1.717,2,1.717,4.038a9.679,9.679,0,0,1-3.49,7.213c-1.4-2.739-.543-7.807-.111-9.859a1.253,1.253,0,0,0-.146-1.1,1.455,1.455,0,0,0-1.184-.429,5.11,5.11,0,0,0-3.1,1.337.961.961,0,0,0-.344.827.909.909,0,0,0,.344.7C-4422.229,1007.116-4422.073,1007.023-4421.944,1007.023Z" transform="translate(4429.233 -998.767)" fill="url(#linear-gradient)"/>
</svg>
