<svg width="1500" height="500" viewBox="0 0 1500 500" version="1.1" xmlns="http://www.w3.org/2000/svg" xmlns:xlink="http://www.w3.org/1999/xlink">
<title>cover-cool</title>
<desc>Created using Figma</desc>
<g id="Canvas" transform="translate(3346 -446)">
<clipPath id="clip-0" clip-rule="evenodd">
<path d="M -3346 446L -1846 446L -1846 946L -3346 946L -3346 446Z" fill="#FFFFFF"/>
</clipPath>
<g id="cover-cool" clip-path="url(#clip-0)">
<g id="Rectangle 4">
<use xlink:href="#path0_fill" transform="translate(-3346 446)" fill="url(#paint0_radial)"/>
</g>
<g id="Group">
<g id="cluster-2">
<g id="Union">
<use xlink:href="#path1_fill" transform="matrix(0.987273 0.159037 -0.159463 0.987204 -2760.68 470.48)" fill="#FFFFFF" fill-opacity="0.1"/>
</g>
</g>
<g id="cluster-1">
<g id="Union">
<use xlink:href="#path2_fill" transform="matrix(0.951096 -0.308895 0.309663 0.950846 -3332 480.12)" fill="#FFFFFF" fill-opacity="0.1"/>
</g>
</g>
<g id="cluster-3">
<g id="Union">
<use xlink:href="#path3_fill" transform="matrix(-0.966015 -0.258488 -0.259151 0.965837 -1833.67 648.469)" fill="#FFFFFF" fill-opacity="0.1"/>
</g>
</g>
<g id="cluster-5">
<g id="Union">
<use xlink:href="#path4_fill" transform="translate(-3165 433)" fill="#FFFFFF" fill-opacity="0.2"/>
</g>
</g>
<g id="cluster-5">
<g id="Union">
<use xlink:href="#path5_fill" transform="translate(-2551 495)" fill="#FFFFFF" fill-opacity="0.2"/>
</g>
</g>
<g id="cluster-1">
<g id="Union">
<use xlink:href="#path6_fill" transform="matrix(-0.951096 0.308895 -0.309663 -0.950846 -2011.58 602.631)" fill="#FFFFFF" fill-opacity="0.15"/>
</g>
</g>
<g id="cluster-5">
<g id="Union">
<use xlink:href="#path7_fill" transform="matrix(-1 0 0 1 -2148 404)" fill="#FFFFFF" fill-opacity="0.1"/>
</g>
</g>
<g id="cluster-4">
<g id="Union">
<use xlink:href="#path8_fill" transform="matrix(0.973628 -0.228144 0.228739 0.973488 -3041 520.587)" fill="#FFFFFF" fill-opacity="0.15"/>
</g>
</g>
<g id="cluster-4">
<g id="Union">
<use xlink:href="#path9_fill" transform="matrix(-0.966015 0.258488 -0.259151 -0.965837 -2313.44 553.284)" fill="#FFFFFF" fill-opacity="0.15"/>
</g>
</g>
<g id="cluster-4">
<g id="Union">
<use xlink:href="#path10_fill" transform="matrix(0.866323 0.499485 -0.500515 0.865728 -1902.96 391.74)" fill="#FFFFFF" fill-opacity="0.1"/>
</g>
</g>
<g id="cluster-4">
<g id="Union">
<use xlink:href="#path11_fill" transform="matrix(-0.966015 0.258488 -0.259151 -0.965837 -3250.37 737.728)" fill="#FFFFFF" fill-opacity="0.2"/>
</g>
</g>
</g>
</g>
</g>
<defs>
<radialGradient id="paint0_radial" cx="0.5" cy="0.5" r="0.5" gradientUnits="userSpaceOnUse" gradientTransform="matrix(-1.56737e-05 -795 2385 -0.00017209 -442.5 897.5)">
<stop offset="0" stop-color="#4ABED0"/>
<stop offset="1" stop-color="#450774"/>
</radialGradient>
<path id="path0_fill" d="M 0 0L 1500 0L 1500 500L 0 500L 0 0Z"/>
<path id="path1_fill" fill-rule="evenodd" d="M 90.1644 3.74328C 90.1645 5.81062 88.4905 7.48659 86.4257 7.48661C 84.3608 7.48663 82.687 5.81066 82.6874 3.74325C 82.6873 1.67592 84.3608 1.83289e-05 86.4257 1.50334e-10C 88.4905 -1.83286e-05 90.1643 1.67595 90.1644 3.74328ZM 18.3994 26.2028L 20.3049 26.5699C 21.1848 26.7167 21.9176 27.4506 21.9911 28.3314C 22.2109 29.9462 20.8184 31.1205 19.352 30.8269L 17.446 30.46C 16.3466 30.1663 15.1738 30.9003 14.954 32.0747L 14.5872 33.983C 14.3673 35.1574 13.1945 35.9647 12.0214 35.6712C 10.8488 35.451 10.1156 34.2766 10.3355 33.1023L 10.7023 31.1939C 10.9953 30.0929 10.2626 28.9185 9.08951 28.6984L 7.18349 28.3314C 5.93722 28.0378 5.20448 26.8634 5.49753 25.6157C 5.79054 24.5147 7.037 23.8541 8.20961 24.0744L 9.96923 24.4413C 11.0686 24.7349 12.2414 24.001 12.4617 22.8265L 12.8281 20.9182C 13.1211 19.7439 14.2939 18.9365 15.467 19.2301C 16.6401 19.4502 17.3728 20.6246 17.153 21.799L 16.7866 23.7073C 16.4931 24.8083 17.2263 25.9827 18.3994 26.2028ZM 3.73826 58.0575C 5.80311 58.0575 7.47708 56.3815 7.477 54.3142C 7.47693 52.2468 5.80312 50.5709 3.73827 50.5709C 1.67341 50.5709 -7.47155e-05 52.2468 7.42969e-08 54.3141C -0.000407169 56.3815 1.6734 58.0575 3.73826 58.0575ZM 24.1154 38.0661L 23.954 38.0346L 23.7905 38.0206L 23.6265 38.025L 23.4632 38.0485L 23.3041 38.0896L 23.1509 38.1483L 23.0048 38.2239L 22.8678 38.3157L 22.7426 38.4221L 22.6293 38.5418L 22.5304 38.6732L 22.4469 38.8148L 22.3802 38.9653L 22.3304 39.1223L 22.2981 39.2838L 22.285 39.4474L 22.2894 39.6126L 22.3128 39.7756L 22.3538 39.9349L 22.4127 40.0882L 22.4883 40.2343L 44.0486 76.7721C 41.9605 77.1732 40.6597 77.6385 40.3907 78.1686C 38.3379 82.2055 39.4375 113.4 41.8566 115.234C 42.7149 115.879 60.3858 116.471 78.6634 116.627L 78.6558 116.629C 83.6251 116.919 87.0383 123.059 89.3764 127.265L 89.3784 127.268C 90.592 129.451 91.5161 131.112 92.2171 131.162C 93.0389 131.219 94.4309 128.982 96.1382 126.239C 98.8468 121.886 102.35 116.257 105.632 116.482C 105.795 116.492 105.894 116.48 105.939 116.448C 113.352 116.233 118.617 115.846 119.486 115.234C 122.785 112.959 123.005 81.9853 120.952 78.1686C 118.943 74.5719 66.2641 73.8613 47.1689 76.2889L 25.0128 38.7413L 24.9209 38.6042L 24.8146 38.4787L 24.6954 38.3656L 24.5642 38.2665L 24.4227 38.1835L 24.2723 38.1161L 24.1154 38.0661ZM 69.4365 7.34262L 69.5887 7.36026L 69.7384 7.39326L 69.8844 7.4424L 70.0238 7.50626L 70.1565 7.58404L 70.2796 7.6758L 70.3924 7.78005L 70.4936 7.89531L 70.583 8.02008L 70.6586 8.15437L 70.7195 8.2953L 70.7653 8.44142L 70.7957 8.59252L 70.81 8.74528L 70.8085 8.89866L 70.7911 9.05132L 70.7581 9.20182L 70.7088 9.34713L 70.6453 9.48658L 70.5674 9.61945L 70.476 9.74274L 70.3716 9.85582L 70.2565 9.95782L 70.1319 10.0467L 69.9982 10.1222L 69.8572 10.1831L 69.7113 10.2293L 28.1475 20.9454L 27.9966 20.9755L 27.8442 20.9902L 27.6911 20.9887L 27.5384 20.9711L 27.3881 20.9381L 27.2432 20.8889L 27.1038 20.825L 26.9711 20.7473L 26.8479 20.6555L 26.7351 20.5513L 26.633 20.4361L 26.5445 20.3112L 26.4691 20.1777L 26.4082 20.0367L 26.3618 19.89L 26.332 19.7394L 26.3171 19.5861L 26.3186 19.4327L 26.3364 19.28L 26.3691 19.1303L 26.4182 18.9842L 26.4823 18.8447L 26.5597 18.7119L 26.6516 18.5886L 26.7555 18.4756L 26.8707 18.3743L 26.9952 18.2847L 27.1284 18.2092L 27.2694 18.1482L 27.4157 18.102L 68.9796 7.38593L 69.13 7.35582L 69.2834 7.34112L 69.4365 7.34262ZM 63.4083 96.2988C 63.4083 98.3661 61.7344 100.042 59.6695 100.042C 57.6047 100.042 55.9309 98.3662 55.9313 96.2988C 55.9312 94.2314 57.6047 92.5556 59.6695 92.5556C 61.7344 92.5555 63.4082 94.2314 63.4083 96.2988ZM 80.7813 100.041C 82.8462 100.041 84.5201 98.3652 84.5201 96.2978C 84.52 94.2304 82.8462 92.5545 80.7813 92.5546C 78.7165 92.5546 77.043 94.2304 77.0431 96.2978C 77.0427 98.3652 78.7165 100.041 80.7813 100.041ZM 101.893 100.041C 103.958 100.041 105.632 98.3652 105.632 96.2978C 105.632 94.2305 103.958 92.5546 101.893 92.5546C 99.8284 92.5546 98.155 94.2305 98.155 96.2978C 98.1546 98.3652 99.8284 100.041 101.893 100.041Z"/>
<path id="path2_fill" fill-rule="evenodd" d="M 32.5663 4.75081L 34.0808 4.75074C 34.7543 4.75084 35.4273 5.14202 35.5958 5.75687C 35.9883 6.93057 35.1469 8.04842 34.0247 8.04838L 32.5662 8.04835C 31.6687 8.04843 30.9393 8.77502 30.9392 9.66924L 30.9952 14.3082C 30.9956 15.2026 30.266 15.985 29.3121 15.985C 28.4147 15.985 27.6294 15.2025 27.6294 14.3083L 27.5732 9.72515C 27.5733 8.83093 26.8439 8.10428 25.9463 8.10428L 24.4877 8.10431C 23.5339 8.10428 22.7485 7.32176 22.8048 6.37165C 22.8048 5.42152 23.6462 4.7508 24.5438 4.7508L 25.9464 4.75082C 26.8438 4.75075 27.5732 4.0242 27.5733 3.12993L 27.5733 1.6768C 27.5732 0.782446 28.3026 -1.1463e-05 29.2562 1.25952e-10C 30.1538 -5.06932e-07 30.9392 0.78246 30.9394 1.67681L 30.9393 3.12994C 30.9393 4.02422 31.6686 4.75081 32.5663 4.75081ZM 36.338 12.503L 36.1875 12.4733L 36.035 12.4638L 35.8823 12.4755L 35.7326 12.508L 35.5887 12.5604L 35.4531 12.6315L 35.3292 12.7204L 35.218 12.8254L 35.1221 12.945L 35.0436 13.0758L 34.9841 13.216L 34.9437 13.3636L 34.9242 13.5151L 34.9258 13.6677L 34.9475 13.8186L 34.9902 13.965L 51.0639 57.846C 29.4658 57.3428 2.61411 58.3738 1.26212 60.866C -0.701354 64.443 -0.476964 93.9538 2.66473 96.0777C 4.31916 97.2231 22.4166 97.5447 40.308 97.4192C 46.0088 97.3792 51.6885 97.2938 56.8091 97.1753C 78.751 96.8389 87.797 96.5815 87.7973 95.5747C 87.7975 95.2965 87.2499 94.8986 86.4279 94.3012C 83.9528 92.5022 78.9838 88.8911 78.9516 81.273C 79.3749 72.5951 79.184 62.9557 78.1199 60.8659C 77.3209 59.2738 66.639 58.2942 53.4763 57.9093L 37.0987 13.1988L 37.0364 13.059L 36.9554 12.9293L 36.858 12.812L 36.7449 12.7085L 36.6191 12.622L 36.4825 12.5526L 36.338 12.503ZM 43.113 10.2282C 44.6311 10.2282 45.862 9.00204 45.8621 7.48956C 45.8622 5.97702 44.6314 4.75086 43.1128 4.75077C 41.5947 4.75077 40.3643 5.97705 40.3642 7.48954C 40.3641 9.00202 41.5949 10.2282 43.113 10.2282ZM 63.2533 78.1365C 63.2531 80.0811 61.671 81.6577 59.7191 81.6577C 57.7667 81.6576 56.1843 80.0811 56.1845 78.1365C 56.1846 76.1918 57.7668 74.6153 59.7187 74.6153C 61.6706 74.6152 63.253 76.1917 63.2533 78.1365ZM 39.5789 81.6577C 41.5308 81.6577 43.1129 80.0811 43.1131 78.1365C 43.1128 76.1917 41.5304 74.6152 39.5785 74.6152C 37.6266 74.6152 36.0444 76.1918 36.0443 78.1364C 36.0441 80.0811 37.6265 81.6576 39.5789 81.6577ZM 19.4386 81.6577C 21.3905 81.6577 22.9727 80.0812 22.9729 78.1365C 22.9725 76.1917 21.3902 74.6152 19.4383 74.6153C 17.4864 74.6153 15.9042 76.1918 15.904 78.1365C 15.9039 80.0811 17.4863 81.6576 19.4386 81.6577Z"/>
<path id="path3_fill" fill-rule="evenodd" d="M 51.5603 7.73848C 53.6999 7.73856 55.4338 6.00618 55.4339 3.86926C 55.434 1.73237 53.6995 -4.49434e-05 51.5604 8.74477e-10C 49.4213 1.54647e-05 47.6868 1.7323 47.6872 3.86931C 47.6872 6.00623 49.4212 7.73852 51.5603 7.73848ZM 15.4086 27.2366L 13.434 26.8572C 12.2187 26.6296 11.4592 25.4157 11.7629 24.2777L 12.143 22.3052C 12.3706 21.0913 11.611 19.8773 10.3958 19.6498C 9.18069 19.3463 7.96559 20.1809 7.66169 21.3947L 7.28212 23.3673C 7.05404 24.5812 5.83907 25.3399 4.6998 25.0364L 2.87679 24.657C 1.66156 24.4294 0.370421 25.1122 0.0666408 26.2502C -0.236909 27.54 0.522658 28.7539 1.81359 29.0574L 3.78825 29.4367C 5.00347 29.6643 5.76304 30.8782 5.45926 32.0162L 5.07969 33.9888C 4.85161 35.2027 5.61119 36.4166 6.82641 36.6442C 8.04151 36.9476 9.25661 36.113 9.48468 34.8992L 9.86425 32.9266C 10.0923 31.7128 11.3073 30.9541 12.4466 31.2575L 14.4212 31.6369C 15.9401 31.9403 17.3833 30.7265 17.1553 29.0573C 17.0796 28.147 16.3202 27.3883 15.4086 27.2366ZM 17.6119 39.6514L 17.4561 39.6196L 17.298 39.6043L 17.1388 39.6059L 16.9805 39.6233L 16.8258 39.6575L 16.6746 39.7083L 16.5301 39.7743L 16.3928 39.8547L 16.2654 39.9489L 16.1481 40.0565L 16.0425 40.1749L 15.9501 40.3046L 15.8716 40.4426L 15.8088 40.5884L 15.7612 40.7394L 15.7289 40.8956L 15.7138 41.0534L 15.7147 41.212L 15.7331 41.3699L 15.7671 41.5254L 15.8178 41.6756L 15.8831 41.8204L 15.9637 41.957L 35.1819 70.9861C 22.0142 71.4473 11.6451 72.4862 10.8127 74.1229C 8.68595 78.2956 9.8252 110.539 12.3315 112.436C 13.318 113.175 35.7195 113.847 56.6489 113.912L 56.5342 113.954C 61.6757 113.954 64.6847 119.985 66.7475 124.119C 67.8227 126.274 68.6405 127.913 69.3693 127.913C 70.221 127.913 71.209 125.77 72.4208 123.141C 74.1945 119.291 76.4488 114.4 79.4586 113.668C 86.739 113.441 91.873 113.047 92.7622 112.436C 96.1797 110.084 96.4078 78.068 94.2808 74.1228C 92.7396 71.3702 62.4201 70.2529 38.7519 70.8768L 18.4982 40.2834L 18.4032 40.1552L 18.2961 40.0383L 18.1768 39.9329L 18.0477 39.8411L 17.9097 39.7622L 17.7638 39.6992L 17.6119 39.6514ZM 37.9261 8.80459L 38.0292 8.81594L 38.131 8.83414L 38.2319 8.85917L 38.331 8.89112L 38.4263 8.9297L 38.5198 8.97521L 38.6102 9.0261L 38.6969 9.08376L 38.779 9.14676L 38.8571 9.21576L 38.9293 9.28938L 38.9978 9.36756L 39.059 9.45018L 39.116 9.53743L 39.1664 9.62851L 39.2101 9.72177L 39.2477 9.81898L 39.2789 9.91759L 39.3024 10.0185L 39.3199 10.1209L 39.3298 10.2234L 39.3327 10.3273L 39.3278 10.4304L 39.3168 10.5336L 39.2984 10.636L 39.2736 10.7362L 39.2416 10.8348L 39.2026 10.9311L 39.1578 11.0244L 39.1065 11.114L 39.0494 11.2005L 38.9855 11.2824L 38.9171 11.3605L 38.8434 11.4334L 38.7646 11.501L 38.6817 11.5631L 38.5949 11.6192L 38.5041 11.6694L 20.5041 20.8494L 20.4099 20.8934L 20.3135 20.9306L 20.2147 20.9616L 20.1137 20.9859L 20.0111 21.0026L 19.9079 21.0125L 19.8045 21.0155L 19.7006 21.011L 19.5973 21.0003L 19.4955 20.9821L 19.3943 20.9563L 19.2962 20.9244L 19.1997 20.8864L 19.1063 20.8409L 19.0163 20.7902L 18.9296 20.7325L 18.8475 20.6695L 18.7699 20.6004L 18.6972 20.5269L 18.6297 20.4488L 18.5672 20.3653L 18.511 20.2788L 18.4601 20.1877L 18.4159 20.0944L 18.3788 19.9973L 18.3486 19.8987L 18.3241 19.7978L 18.3076 19.6954L 18.2974 19.5921L 18.2947 19.4891L 18.2984 19.3851L 18.3097 19.2826L 18.328 19.1803L 18.3529 19.0801L 18.3849 18.9814L 18.4239 18.8852L 18.4686 18.7918L 18.52 18.7022L 18.578 18.6158L 18.6412 18.5332L 18.7094 18.4558L 18.7831 18.3829L 18.8618 18.3153L 18.9447 18.2532L 19.0321 18.197L 19.1224 18.1469L 37.1224 8.9669L 37.2166 8.92291L 37.3132 8.88501L 37.4128 8.8547L 37.5138 8.83042L 37.6154 8.81368L 37.7186 8.8038L 37.8225 8.80072L 37.9261 8.80459ZM 74.5343 96.7316C 72.3952 96.7316 70.6607 94.9992 70.6608 92.8623C 70.6608 90.7254 72.3953 88.9931 74.5344 88.9931C 76.6735 88.993 78.4075 90.7253 78.4079 92.8624C 78.4078 94.9993 76.6734 96.7315 74.5343 96.7316ZM 52.6611 96.7316C 50.5219 96.7316 48.7874 94.9992 48.7875 92.8623C 48.7876 90.7254 50.522 88.9931 52.6611 88.9931C 54.8002 88.993 56.5343 90.7253 56.5347 92.8624C 56.5346 94.9993 54.8002 96.7315 52.6611 96.7316ZM 26.9138 92.8623C 26.9137 94.9992 28.6482 96.7316 30.7873 96.7316C 32.9264 96.7315 34.6608 94.9993 34.6609 92.8623C 34.6605 90.7253 32.9265 88.993 30.7874 88.993C 28.6483 88.9931 26.9138 90.7253 26.9138 92.8623Z"/>
<path id="path4_fill" fill-rule="evenodd" d="M 68.0004 0.0609131L 67.827 0.0195923L 67.6498 0L 67.4716 0.00280762L 67.2948 0.0272827L 67.1234 0.0734863L 66.9584 0.140686L 66.8031 0.227478L 66.6605 0.332458L 66.5331 0.454956L 66.4208 0.592102L 26.7582 56.0956L 26.6654 56.2454L 26.5917 56.405L 26.5389 56.5729L 26.5077 56.7465L 26.4994 56.9222L 26.5136 57.0972L 26.5492 57.2693L 26.6063 57.4359L 26.6845 57.5934L 26.7826 57.7411L 26.8983 57.8748L 27.0292 57.993L 27.1757 58.0945L 27.3324 58.1771L 27.4989 58.2394L 27.6722 58.2808L 27.8495 58.3004L 28.0277 58.2975L 28.2045 58.273L 28.3759 58.2269L 28.5409 58.1597L 28.6962 58.0729L 28.8388 57.9679L 28.9662 57.8454L 29.0785 57.7082L 68.7411 2.20471L 68.8339 2.05493L 68.9076 1.89539L 68.9603 1.72742L 68.9916 1.55383L 68.9999 1.37811L 68.9857 1.20319L 68.9501 1.03101L 68.893 0.86438L 68.8148 0.706909L 68.7167 0.559204L 68.601 0.425537L 68.4701 0.307251L 68.3236 0.20575L 68.1669 0.123169L 68.0004 0.0609131ZM 0.00379097 51.3942C 0.0921699 49.503 1.72059 48.0395 3.63709 48.127C 5.55408 48.2144 7.03797 49.8207 6.9491 51.7112C 6.86072 53.6024 5.23231 55.0659 3.3158 54.9785C 1.3993 54.8909 -0.0850762 53.2847 0.00379097 51.3942ZM 25.7899 62.8513L 23.8739 62.8513C 22.7387 62.8513 21.8163 61.9414 21.8163 60.8215L 21.8163 59.0017C 21.8163 57.8818 20.8231 56.902 19.6879 56.902C 18.4818 56.902 17.5595 57.8818 17.5595 59.0017L 17.5595 60.8215C 17.5595 61.9414 16.6371 62.8513 15.5018 62.8513L 13.7279 62.8513C 12.5927 62.8513 11.5282 63.6912 11.5282 64.881C 11.4574 66.0709 12.4506 67.0508 13.6571 67.0508L 15.5018 67.0508C 16.6371 67.0508 17.5595 67.9607 17.5595 69.0806L 17.6303 70.9003C 17.6303 72.0202 18.6234 73.0001 19.7587 73.0001C 20.9652 73.0001 21.8876 72.0202 21.8876 70.9003L 21.8163 69.0106C 21.8163 67.8907 22.7387 66.9808 23.8739 66.9808L 25.7186 66.9808C 27.1381 66.9808 28.202 65.5809 27.7055 64.1111C 27.4926 63.3412 26.641 62.8513 25.7899 62.8513Z"/>
<path id="path5_fill" fill-rule="evenodd" d="M 75.8841 0.0684204L 75.6908 0.0220337L 75.493 0L 75.2943 0.00317383L 75.097 0.0306396L 74.9056 0.0825806L 74.7215 0.15802L 74.5482 0.255493L 74.389 0.373474L 74.2464 0.511047L 74.1214 0.665161L 29.8607 63.0114L 29.7567 63.1797L 29.6746 63.3589L 29.616 63.5476L 29.5809 63.7426L 29.5716 63.9399L 29.5872 64.1365L 29.6273 64.3299L 29.6912 64.517L 29.7782 64.6939L 29.8875 64.8598L 30.0164 65.0099L 30.1629 65.1428L 30.326 65.2568L 30.5013 65.3496L 30.6873 65.4196L 30.8802 65.466L 31.0784 65.488L 31.2772 65.4848L 31.4744 65.4573L 31.6658 65.4054L 31.8494 65.33L 32.0228 65.2325L 32.182 65.1145L 32.3245 64.9769L 32.4495 64.8228L 76.7108 2.47656L 76.8143 2.30829L 76.8968 2.12903L 76.9554 1.94037L 76.9901 1.74536L 76.9998 1.54803L 76.9837 1.3515L 76.9442 1.15808L 76.8802 0.970947L 76.7928 0.794067L 76.6839 0.628174L 76.5545 0.478027L 76.408 0.345154L 76.2449 0.23114L 76.0701 0.138367L 75.8841 0.0684204ZM 0.00422692 57.7305C 0.10286 55.6061 1.92024 53.9622 4.05891 54.0605C 6.19807 54.1587 7.85384 55.9631 7.75472 58.0866C 7.65608 60.211 5.8387 61.8549 3.70003 61.7567C 1.56136 61.6584 -0.0948942 59.854 0.00422692 57.7305ZM 28.7801 70.6001L 26.6424 70.6001C 25.3753 70.6001 24.346 69.578 24.346 68.3201L 24.346 66.2759C 24.346 65.018 23.2376 63.9173 21.9705 63.9173C 20.6248 63.9173 19.5955 65.018 19.5955 66.2759L 19.5955 68.3201C 19.5955 69.578 18.5662 70.6001 17.2991 70.6001L 15.3197 70.6001C 14.0531 70.6001 12.8651 71.5435 12.8651 72.8801C 12.786 74.2166 13.8944 75.3174 15.2406 75.3174L 17.2991 75.3174C 18.5662 75.3174 19.5955 76.3394 19.5955 77.5974L 19.6746 79.6415C 19.6746 80.8994 20.783 82.0001 22.0501 82.0001C 23.3958 82.0001 24.4251 80.8994 24.4251 79.6415L 24.346 77.5187C 24.346 76.2608 25.3753 75.2387 26.6424 75.2387L 28.701 75.2387C 30.2845 75.2387 31.472 73.6663 30.9178 72.0153C 30.6805 71.1505 29.7303 70.6001 28.7801 70.6001Z"/>
<path id="path6_fill" fill-rule="evenodd" d="M 59.3791 101.576C 82.3168 101.224 91.7732 100.955 91.7734 99.9025C 91.7736 99.6117 91.2015 99.196 90.3422 98.5714C 87.7541 96.6905 82.5588 92.9149 82.527 84.9487C 82.969 75.879 82.7694 65.8061 81.6575 63.622C 80.8224 61.9578 69.6569 60.9339 55.8982 60.5316L 38.7792 13.7967L 38.7138 13.6505L 38.6296 13.515L 38.5273 13.3923L 38.4095 13.2842L 38.2778 13.1937L 38.1351 13.1212L 37.9836 13.0692L 37.8268 13.0383L 37.6673 13.0284L 37.5077 13.0406L 37.3509 13.0744L 37.2011 13.1294L 37.0589 13.2036L 36.9295 13.2965L 36.8132 13.4063L 36.7129 13.5313L 36.6309 13.6681L 36.5688 13.8147L 36.5263 13.9689L 36.5061 14.1273L 36.508 14.2868L 36.5306 14.4445L 36.5752 14.5976L 53.3764 60.4653C 30.8005 59.9394 2.73279 61.0171 1.31943 63.6221C -0.733211 67.361 -0.498571 98.2082 2.78558 100.428C 5.06593 102.007 37.2294 102.088 59.3791 101.576ZM 20.3193 85.3555C 22.3596 85.3554 24.0137 83.7076 24.0133 81.6747C 24.0134 79.642 22.3593 77.9941 20.3191 77.9941C 18.2789 77.9942 16.6247 79.642 16.6246 81.6748C 16.6245 83.7075 18.2787 85.3554 20.3193 85.3555ZM 41.3713 85.3554C 43.4115 85.3554 45.0657 83.7076 45.0653 81.6747C 45.0654 79.642 43.4113 77.9941 41.3711 77.9941C 39.3308 77.9942 37.6767 79.642 37.6766 81.6747C 37.6766 83.7074 39.3306 85.3554 41.3713 85.3554ZM 66.1178 81.6748C 66.1182 83.7077 64.464 85.3555 62.4238 85.3555C 60.3831 85.3555 58.729 83.7076 58.7291 81.6748C 58.7292 79.6421 60.3833 77.9943 62.4235 77.9942C 64.4637 77.9942 66.1178 79.6421 66.1178 81.6748ZM 34.0413 4.96599L 35.6246 4.96599C 36.3284 4.96602 37.0321 5.37497 37.2079 6.01759C 37.6186 7.24452 36.7386 8.41286 35.566 8.41293L 34.0413 8.41292C 33.1028 8.41285 32.3406 9.17238 32.3407 10.1072L 32.3991 14.9562C 32.3992 15.8909 31.637 16.7089 30.64 16.7089C 29.702 16.709 28.8809 15.891 28.8809 14.9562L 28.8224 10.1656C 28.8223 9.23084 28.0598 8.4713 27.1218 8.47139L 25.597 8.47135C 24.6 8.47133 23.779 7.65337 23.8379 6.6603C 23.8379 5.6671 24.7172 4.96591 25.6556 4.96597L 27.1218 4.96603C 28.0598 4.96594 28.822 4.20644 28.8224 3.27179L 28.8221 1.75269C 28.822 0.817922 29.5847 0.000136476 30.5812 0C 31.5197 6.09481e-05 32.3407 0.817992 32.3408 1.75279L 32.3407 3.27174C 32.3408 4.20651 33.1028 4.96593 34.0413 4.96599ZM 45.0658 10.6914C 46.6527 10.6913 47.9391 9.40967 47.939 7.82861C 47.9393 6.24767 46.6527 4.96595 45.0658 4.96597C 43.4789 4.966 42.1924 6.24767 42.1921 7.82858C 42.1923 9.40967 43.4789 10.6914 45.0658 10.6914Z"/>
<path id="path7_fill" fill-rule="evenodd" d="M 82.7829 0.0742188L 82.5725 0.0238647L 82.3566 0L 82.1398 0.00341797L 81.9245 0.0332642L 81.7155 0.0895996L 81.5153 0.171509L 81.3259 0.277344L 81.1525 0.405334L 80.9968 0.554688L 80.8605 0.721924L 32.5759 68.3905L 32.4626 68.5731L 32.3728 68.7676L 32.3088 68.9725L 32.2707 69.1841L 32.2605 69.3983L 32.2775 69.6116L 32.321 69.8215L 32.3908 70.0246L 32.486 70.2166L 32.6052 70.3967L 32.7458 70.5596L 32.9055 70.7039L 33.0837 70.8276L 33.2746 70.9283L 33.4777 71.0042L 33.6882 71.0546L 33.904 71.0785L 34.1208 71.0751L 34.3361 71.0452L 34.5451 70.9889L 34.7453 70.9069L 34.9348 70.8011L 35.1081 70.6732L 35.2639 70.5238L 35.4001 70.3566L 83.6848 2.68799L 83.798 2.50537L 83.8879 2.31079L 83.9519 2.10602L 83.9899 1.89441L 84.0002 1.68018L 83.9831 1.46686L 83.9397 1.25696L 83.8698 1.05383L 83.7746 0.861877L 83.6555 0.681824L 83.5148 0.518799L 83.3552 0.374634L 83.177 0.250854L 82.986 0.150208L 82.7829 0.0742188ZM 0.00459201 62.6585C 0.11299 60.3528 2.09492 58.5685 4.42793 58.6752C 6.76192 58.7819 8.56807 60.7402 8.46016 63.045C 8.35225 65.3508 6.36983 67.1351 4.03682 67.0284C 1.70381 66.9217 -0.103318 64.9633 0.00459201 62.6585ZM 31.3967 76.6267L 29.0642 76.6267C 27.6823 76.6267 26.5593 75.5174 26.5593 74.1521L 26.5593 71.9335C 26.5593 70.5681 25.3503 69.3735 23.968 69.3735C 22.4997 69.3735 21.3767 70.5681 21.3767 71.9335L 21.3767 74.1521C 21.3767 75.5174 20.2541 76.6267 18.8718 76.6267L 16.7126 76.6267C 15.3303 76.6267 14.0349 77.6507 14.0349 79.1014C 13.9484 80.552 15.1579 81.7466 16.6262 81.7466L 18.8718 81.7466C 20.2541 81.7466 21.3767 82.856 21.3767 84.2213L 21.4631 86.4399C 21.4631 87.8053 22.6726 88.9999 24.0544 88.9999C 25.5231 88.9999 26.6457 87.8053 26.6457 86.4399L 26.5593 84.136C 26.5593 82.7706 27.6823 81.6613 29.0642 81.6613L 31.3103 81.6613C 33.0378 81.6613 34.3332 79.9547 33.7287 78.1627C 33.4694 77.2241 32.4333 76.6267 31.3967 76.6267Z"/>
<path id="path8_fill" fill-rule="evenodd" d="M 47.5895 7.07653L 49.8553 7.07655C 50.8623 7.07656 51.8688 7.65929 52.1206 8.57505C 52.7083 10.3235 51.4496 11.9885 49.7715 11.9886L 47.5895 11.9885C 46.2469 11.9885 45.1561 13.0708 45.1561 14.4029L 45.2404 16.6508C 45.2404 17.9829 44.1496 19.1485 42.7228 19.1484C 41.3803 19.1484 40.2057 17.9829 40.2057 16.6508L 40.1215 14.4861C 40.1215 13.1541 39.0307 12.0718 37.6882 12.0717L 35.5066 12.0718C 34.0803 12.0718 32.9053 10.9062 32.9896 9.49099C 32.9896 8.07567 34.2479 7.07655 35.5904 7.0765L 37.6882 7.07653C 39.0308 7.07654 40.1216 5.99422 40.1216 4.66215L 40.1216 2.49753C 40.1216 1.16546 41.2124 -7.15683e-05 42.6391 3.29607e-09C 43.9817 -4.31683e-05 45.1562 1.16552 45.1562 2.49758L 45.1562 4.66215C 45.1562 5.99422 46.247 7.07651 47.5895 7.07653ZM 27.7945 22.3435C 25.5281 22.2395 23.6025 23.9803 23.4978 26.2299C 23.3928 28.4786 25.1481 30.3892 27.4145 30.4933C 29.6809 30.5974 31.6065 28.8565 31.7117 26.607C 31.8162 24.3582 30.062 22.4476 27.7945 22.3435ZM 0.00449431 110.766C 0.109037 108.517 2.03477 106.775 4.30121 106.879C 6.56765 106.984 8.32289 108.894 8.21816 111.144C 8.11315 113.392 6.18741 115.134 3.92098 115.03C 1.65373 114.925 -0.100705 113.015 0.00449431 110.766ZM 94.3273 128.295L 96.5931 128.295C 97.6838 128.295 98.6066 128.961 98.8584 129.793C 99.4461 131.542 98.1873 133.207 96.5093 133.207L 94.3272 133.207C 92.9847 133.207 91.8939 134.289 91.8939 135.621L 91.9781 142.531C 91.9781 143.863 90.8873 145.029 89.4605 145.029C 88.118 145.029 86.9435 143.863 86.9435 142.531L 86.8593 135.704C 86.8593 134.372 85.7685 133.29 84.426 133.29L 82.2444 133.29C 80.8181 133.29 79.6431 132.124 79.7274 130.709C 79.7274 129.294 80.9857 128.295 82.3282 128.295L 84.426 128.295C 85.7685 128.295 86.8593 127.212 86.8593 125.88L 86.8593 123.716C 86.8594 122.384 87.9501 121.218 89.3769 121.218C 90.7194 121.218 91.894 122.384 91.894 123.716L 91.894 125.88C 91.894 127.212 92.9847 128.295 94.3273 128.295ZM 38.7979 37.4025L 39.0209 37.4541L 39.235 37.5357L 39.4353 37.6456L 39.6191 37.7813L 39.7828 37.9403L 39.9221 38.1202L 40.0363 38.3175L 78.3831 116.493L 78.4695 116.704L 78.5257 116.924L 78.5507 117.15L 78.5452 117.376L 78.5079 117.601L 78.4408 117.818L 78.3443 118.024L 78.2201 118.216L 78.0718 118.388L 77.9005 118.539L 77.7103 118.665L 77.5038 118.765L 77.2865 118.836L 77.0605 118.876L 76.8325 118.886L 76.6042 118.865L 76.3808 118.813L 76.167 118.732L 75.9667 118.622L 75.7829 118.486L 75.6192 118.327L 75.4799 118.147L 75.3657 117.95L 37.0189 39.7744L 36.9325 39.5638L 36.876 39.3431L 36.8513 39.1176L 36.857 38.8903L 36.8941 38.6664L 36.9612 38.449L 37.0574 38.2425L 37.1819 38.0519L 37.3304 37.8788L 37.5012 37.728L 37.6919 37.6015L 37.8983 37.5024L 38.1155 37.4316L 38.3412 37.3908L 38.5697 37.3809L 38.7979 37.4025ZM 23.9564 41.3339L 23.7769 41.3039L 23.5957 41.2939L 23.4145 41.3031L 23.2348 41.3314L 23.0595 41.3797L 22.8909 41.4463L 22.7299 41.5296L 22.5797 41.6311L 22.4401 41.7468L 22.3151 41.8775L 22.2053 42.0207L 22.1107 42.1756L 22.0343 42.3388L 21.9756 42.5095L 7.45918 93.8773L 7.41944 94.0529L 7.39944 94.2319L 7.39961 94.4126L 7.41876 94.5916L 7.45752 94.7681L 7.51423 94.9387L 7.59102 95.1028L 7.68404 95.2576L 7.79313 95.4017L 7.91791 95.5323L 8.05633 95.6497L 8.2065 95.7512L 8.36707 95.8362L 8.53549 95.9028L 8.71001 95.9519L 8.88953 95.9819L 9.07121 95.992L 9.25241 95.9828L 9.43178 95.9536L 9.6074 95.9062L 9.77602 95.8396L 9.93671 95.7554L 10.0872 95.6548L 10.2265 95.5382L 10.3515 95.4075L 10.4613 95.2643L 10.5562 95.1103L 10.6326 94.9471L 10.6913 94.7764L 25.2077 43.4086L 25.2472 43.2321L 25.2672 43.0531L 25.2673 42.8733L 25.2488 42.6935L 25.2104 42.5178L 25.1524 42.3463L 25.0761 42.1823L 24.9829 42.0283L 24.8738 41.8842L 24.7487 41.7527L 24.6101 41.6361L 24.4609 41.5345L 24.2998 41.4496L 24.1321 41.3822L 23.9564 41.3339Z"/>
<path id="path9_fill" fill-rule="evenodd" d="M 72.2435 98.262L 73.9782 98.2618C 74.8137 98.2619 75.5205 98.772 75.7134 99.4096C 76.1634 100.749 75.1995 102.024 73.9142 102.024L 72.2431 102.024C 71.215 102.024 70.3795 102.853 70.3798 103.873L 70.444 109.166C 70.4437 110.186 69.6083 111.079 68.516 111.079C 67.4879 111.079 66.5881 110.186 66.5878 109.166L 66.5237 103.937C 66.5239 102.917 65.6884 102.088 64.6598 102.088L 62.9892 102.088C 61.8965 102.088 60.9971 101.195 61.061 100.111C 61.0611 99.0271 62.0251 98.2619 63.0532 98.2618L 64.6601 98.2619C 65.6882 98.2618 66.5237 97.4329 66.5239 96.4127L 66.5239 94.7548C 66.5236 93.7346 67.359 92.8418 68.4518 92.8419C 69.4799 92.8419 70.3797 93.7346 70.3795 94.7548L 70.3796 96.4127C 70.3798 97.433 71.2149 98.2618 72.2435 98.262ZM 0.003402 84.8365C 0.0838069 83.1143 1.55874 81.7803 3.29434 81.86C 5.03042 81.9397 6.3746 83.4031 6.29451 85.1261C 6.2141 86.8483 4.73919 88.1823 3.00358 88.1026C 1.26713 88.0223 -0.0766895 86.5595 0.003402 84.8365ZM 21.2871 17.113C 19.5515 17.0333 18.0767 18.3667 17.9962 20.0896C 17.9162 21.812 19.2604 23.2753 20.996 23.355C 22.7321 23.4348 24.2069 22.1014 24.287 20.3784C 24.3674 18.6561 23.0237 17.1928 21.2871 17.113ZM 36.4478 5.42002L 38.1826 5.41991C 38.9539 5.41995 39.7253 5.86637 39.9177 6.5677C 40.3678 7.9068 39.4039 9.18213 38.1185 9.18212L 36.4475 9.18206C 35.4194 9.18211 34.5839 10.011 34.5841 11.0313L 34.6484 12.753C 34.6482 13.7732 33.8128 14.6659 32.7205 14.6659C 31.6919 14.6659 30.7926 13.7732 30.7923 12.7529L 30.7281 11.0951C 30.7283 10.0749 29.8928 9.2459 28.8642 9.2458L 27.1936 9.2459C 26.1008 9.2458 25.2015 8.3532 25.2654 7.26908C 25.2655 6.18512 26.2295 5.41993 27.2576 5.41991L 28.8644 5.41998C 29.8925 5.41995 30.728 4.59103 30.7283 3.57082L 30.7282 1.91294C 30.728 0.892643 31.5634 -9.36551e-05 32.6562 7.36936e-09C 33.6843 -2.44519e-05 34.5841 0.892704 34.5839 1.91288L 34.5839 3.57079C 34.5842 4.59109 35.4192 5.41995 36.4478 5.42002ZM 29.7139 28.6468L 29.8852 28.6865L 30.0489 28.7489L 30.2027 28.8331L 30.3432 28.937L 30.4687 29.0589L 30.5753 29.1966L 30.6626 29.3477L 60.0317 89.223L 60.0976 89.3843L 60.1409 89.5527L 60.1601 89.7261L 60.1555 89.8996L 60.1275 90.0718L 60.0758 90.2381L 60.0022 90.3957L 59.9068 90.5423L 59.793 90.6743L 59.662 90.7897L 59.5162 90.8867L 59.3582 90.9632L 59.1915 91.0173L 59.0185 91.0479L 58.8441 91.0556L 58.6689 91.0396L 58.4982 90.9995L 58.3344 90.9377L 58.1806 90.8534L 58.0401 90.7496L 57.9146 90.6277L 57.808 90.49L 57.7206 90.3389L 28.3516 30.4635L 28.2857 30.3023L 28.2425 30.1333L 28.2232 29.9605L 28.2275 29.7863L 28.2558 29.6148L 28.3075 29.4485L 28.3812 29.2903L 28.4765 29.1443L 28.59 29.0116L 28.721 28.8962L 28.8673 28.7993L 29.0251 28.7234L 29.1918 28.6693L 29.3645 28.638L 29.5394 28.6303L 29.7139 28.6468ZM 18.348 31.6581L 18.2102 31.635L 18.0717 31.6274L 17.9328 31.6344L 17.7951 31.656L 17.6608 31.693L 17.5319 31.7442L 17.4081 31.8078L 17.2933 31.8856L 17.1866 31.9743L 17.091 32.0744L 17.0065 32.184L 16.9342 32.3027L 16.8754 32.4276L 16.8307 32.5584L 5.71268 71.9013L 5.68264 72.0359L 5.6671 72.173L 5.66737 72.3114L 5.68215 72.4485L 5.7116 72.5837L 5.75539 72.7144L 5.8137 72.8399L 5.88499 72.9585L 5.96861 73.0689L 6.06456 73.1691L 6.17037 73.2589L 6.28546 73.3367L 6.40803 73.4017L 6.53738 73.4528L 6.67086 73.4903L 6.80873 73.5134L 6.94722 73.521L 7.08608 73.5139L 7.22348 73.4916L 7.35806 73.4554L 7.48702 73.4042L 7.61043 73.3399L 7.72564 73.2628L 7.83248 73.1735L 7.92809 73.0733L 8.01212 72.9636L 8.0847 72.8457L 8.14348 72.7208L 8.18817 72.59L 19.3062 33.2471L 19.3364 33.1119L 19.3515 32.9747L 19.3515 32.837L 19.3374 32.6992L 19.3078 32.5647L 19.2637 32.4334L 19.2054 32.3078L 19.1339 32.1898L 19.0503 32.0795L 18.9545 31.9787L 18.8485 31.8895L 18.7339 31.8116L 18.6109 31.7467L 18.4822 31.695L 18.348 31.6581Z"/>
<path id="path10_fill" fill-rule="evenodd" d="M 49.1326 7.3098L 51.4716 7.30981C 52.511 7.3099 53.5504 7.91197 53.8105 8.85783C 54.4167 10.664 53.1175 12.3839 51.3849 12.3839L 49.1326 12.3838C 47.7462 12.384 46.6201 13.502 46.6203 14.8778L 46.7067 17.1999C 46.7069 18.5758 45.5804 19.78 44.1081 19.7798C 42.7217 19.78 41.5091 18.5758 41.5089 17.1999L 41.4221 14.964C 41.4224 13.5879 40.2962 12.4699 38.9103 12.4698L 36.6575 12.47C 35.1848 12.47 33.9722 11.2658 34.0587 9.8039C 34.0589 8.34182 35.3582 7.3099 36.7442 7.30995L 38.9101 7.30986C 40.2961 7.30992 41.4223 6.19198 41.4225 4.81581L 41.4225 2.57985C 41.4223 1.20393 42.5488 -0.000224507 44.0211 3.13973e-08C 45.4075 -0.000193448 46.62 1.20398 46.6202 2.57984L 46.6202 4.81586C 46.62 6.19197 47.7462 7.30999 49.1326 7.3098ZM 28.6959 23.0803C 26.3557 22.973 24.3674 24.7713 24.2592 27.095C 24.151 29.4178 25.9636 31.3914 28.3033 31.4989C 30.6431 31.6065 32.6313 29.8082 32.7396 27.4844C 32.8478 25.1617 31.0363 23.188 28.6959 23.0803ZM 0.00460929 114.419C 0.113255 112.096 2.10113 110.297 4.44133 110.404C 6.78108 110.512 8.59325 112.486 8.485 114.809C 8.37678 117.132 6.38848 118.931 4.0487 118.824C 1.70795 118.715 -0.10364 116.743 0.00460929 114.419ZM 97.3857 132.526L 99.7248 132.526C 100.851 132.526 101.804 133.214 102.064 134.074C 102.67 135.88 101.371 137.6 99.6381 137.6L 97.3858 137.6C 95.9994 137.6 94.8733 138.718 94.8735 140.094L 94.9601 147.232C 94.9599 148.608 93.8339 149.812 92.3611 149.812C 90.9751 149.812 89.7622 148.608 89.7624 147.232L 89.6753 140.18C 89.6756 138.804 88.5494 137.686 87.1634 137.686L 84.9107 137.686C 83.438 137.686 82.2254 136.482 82.3119 135.02C 82.3121 133.558 83.6114 132.526 84.9974 132.526L 87.1633 132.526C 88.5493 132.526 89.6754 131.408 89.6757 130.032L 89.6756 127.796C 89.6754 126.42 90.8019 125.216 92.2743 125.216C 93.6607 125.216 94.8732 126.42 94.8734 127.796L 94.8734 130.032C 94.8732 131.408 95.9993 132.526 97.3857 132.526ZM 40.0555 38.6362L 40.2859 38.6896L 40.507 38.7737L 40.714 38.8872L 40.9038 39.0274L 41.0726 39.1918L 41.2165 39.3774L 41.3343 39.5813L 80.924 120.335L 81.0131 120.553L 81.0715 120.78L 81.0973 121.014L 81.0915 121.248L 81.0532 121.48L 80.9839 121.704L 80.8841 121.917L 80.756 122.115L 80.6029 122.292L 80.4258 122.448L 80.2295 122.579L 80.0163 122.682L 79.792 122.755L 79.5589 122.796L 79.3231 122.807L 79.0875 122.785L 78.8571 122.731L 78.636 122.648L 78.4289 122.534L 78.2396 122.394L 78.0704 122.23L 77.9269 122.044L 77.8087 121.84L 38.219 41.0863L 38.1299 40.8687L 38.0715 40.6409L 38.0457 40.4078L 38.052 40.1729L 38.0898 39.9418L 38.159 39.7173L 38.2589 39.5038L 38.387 39.307L 38.5402 39.1282L 38.7173 38.9724L 38.9135 38.8418L 39.1266 38.7395L 39.3514 38.6662L 39.5842 38.6242L 39.82 38.6138L 40.0555 38.6362ZM 24.7332 42.6971L 24.5479 42.6661L 24.3605 42.6559L 24.1737 42.6652L 23.9883 42.6945L 23.8073 42.7443L 23.633 42.8132L 23.4668 42.8992L 23.3116 43.0041L 23.1676 43.1238L 23.0387 43.2587L 22.9252 43.4066L 22.8272 43.5667L 22.7487 43.7351L 22.6877 43.9115L 7.701 96.9732L 7.65998 97.1549L 7.63938 97.3397L 7.6395 97.5263L 7.65948 97.7111L 7.69898 97.8936L 7.75798 98.0699L 7.83673 98.2393L 7.93304 98.3992L 8.04554 98.5481L 8.17479 98.683L 8.31758 98.8043L 8.47285 98.9092L 8.63803 98.997L 8.81241 99.0657L 8.99272 99.1163L 9.17802 99.1473L 9.36498 99.1578L 9.55222 99.1482L 9.7377 99.1181L 9.91857 99.0692L 10.0929 99.0003L 10.2592 98.9134L 10.4143 98.8093L 10.5579 98.689L 10.6872 98.5539L 10.8003 98.4062L 10.8983 98.247L 10.9773 98.0784L 11.0378 97.9022L 26.0249 44.8402L 26.0656 44.6579L 26.0862 44.4731L 26.0864 44.2872L 26.0675 44.1014L 26.0276 43.92L 25.9676 43.743L 25.8888 43.5735L 25.7929 43.4143L 25.68 43.2656L 25.5512 43.1296L 25.4079 43.0094L 25.2537 42.9045L 25.0875 42.8167L 24.9142 42.747L 24.7332 42.6971Z"/>
<path id="path11_fill" fill-rule="evenodd" d="M 83.2884 113.285L 85.2889 113.285C 86.2521 113.285 87.0671 113.873 87.2892 114.608C 87.8078 116.152 86.6966 117.623 85.2147 117.623L 83.2883 117.623C 82.103 117.623 81.1398 118.578 81.1399 119.755L 81.214 125.856C 81.2139 127.032 80.2508 128.062 78.9912 128.062C 77.8057 128.062 76.7686 127.032 76.7685 125.856L 76.6944 119.828C 76.6945 118.652 75.7312 117.696 74.5459 117.696L 72.6194 117.696C 71.36 117.696 70.3227 116.667 70.3969 115.417C 70.3967 114.167 71.5081 113.285 72.6936 113.285L 74.5459 113.285C 75.7312 113.285 76.6945 112.33 76.6944 111.153L 76.6943 109.242C 76.6945 108.066 77.6575 107.037 78.9171 107.037C 80.1026 107.037 81.1397 108.066 81.1398 109.242L 81.1399 111.153C 81.1398 112.33 82.103 113.285 83.2884 113.285ZM 0.003946 97.8072C 0.0968502 95.8217 1.79685 94.2837 3.79808 94.3756C 5.7993 94.4675 7.34932 96.1547 7.2567 98.141C 7.16427 100.127 5.46379 101.665 3.46256 101.573C 1.46054 101.48 -0.0886764 99.7936 0.003946 97.8072ZM 24.5415 19.7297C 22.5402 19.6378 20.8399 21.1749 20.7473 23.1613C 20.6549 25.147 22.2049 26.8341 24.2061 26.926C 26.2069 27.0178 27.9077 25.4807 28.0003 23.4944C 28.0927 21.5087 26.5437 19.8216 24.5415 19.7297ZM 42.0202 6.24872L 44.0203 6.24867C 44.9094 6.24866 45.7985 6.76326 46.0208 7.57192C 46.5397 9.11579 45.428 10.586 43.9465 10.5861L 42.0202 10.5861C 40.8344 10.586 39.8714 11.5417 39.8713 12.7179L 39.9453 14.7028C 39.9457 15.8791 38.9822 16.9082 37.7226 16.9082C 36.5373 16.9082 35.5002 15.879 35.5003 14.7028L 35.4262 12.7915C 35.4259 11.6152 34.4631 10.6596 33.2773 10.6595L 31.351 10.6595C 30.0914 10.6595 29.0543 9.63034 29.1282 8.38056C 29.1283 7.13087 30.2399 6.24875 31.4253 6.24871L 33.2773 6.24865C 34.4631 6.24876 35.4261 5.29304 35.4262 4.11685L 35.4259 2.20541C 35.4261 1.02921 36.3891 -2.96886e-05 37.6487 1.14463e-09C 38.834 -3.96336e-05 39.8716 1.02924 39.8714 2.20544L 39.8712 4.11675C 39.8716 5.29305 40.8344 6.24864 42.0202 6.24872ZM 34.2572 33.027L 34.4542 33.0725L 34.6431 33.1446L 34.8203 33.2416L 34.9823 33.3614L 35.1271 33.5019L 35.2498 33.6606L 35.3506 33.8349L 69.2096 102.864L 69.2861 103.05L 69.3356 103.245L 69.3578 103.445L 69.3527 103.644L 69.3202 103.843L 69.2609 104.035L 69.1758 104.216L 69.066 104.385L 68.9349 104.538L 68.7837 104.671L 68.6155 104.782L 68.4334 104.871L 68.2415 104.933L 68.0422 104.968L 67.8407 104.977L 67.6391 104.959L 67.442 104.913L 67.2529 104.841L 67.076 104.744L 66.9138 104.624L 66.7693 104.484L 66.6463 104.325L 66.5455 104.151L 32.6864 35.1214L 32.61 34.9353L 32.5606 34.7406L 32.5382 34.5413L 32.5436 34.3407L 32.5759 34.1429L 32.6354 33.951L 32.7203 33.7687L 32.8301 33.6003L 32.9611 33.4474L 33.1125 33.3144L 33.2805 33.2026L 33.4627 33.1151L 33.6549 33.0527L 33.8541 33.0167L 34.0556 33.0078L 34.2572 33.027ZM 21.153 36.4983L 20.9943 36.4718L 20.8344 36.463L 20.674 36.471L 20.5157 36.4961L 20.3607 36.5387L 20.212 36.5975L 20.0694 36.671L 19.9372 36.7608L 19.8142 36.8629L 19.7034 36.9782L 19.6068 37.1048L 19.5226 37.2414L 19.4557 37.3856L 19.4036 37.5363L 6.58596 82.8944L 6.55141 83.0496L 6.53329 83.2076L 6.53346 83.3671L 6.55069 83.5252L 6.5847 83.681L 6.63477 83.8317L 6.70255 83.9766L 6.78465 84.1133L 6.88095 84.2404L 6.9915 84.3559L 7.11334 84.4595L 7.24597 84.5491L 7.38759 84.6242L 7.53659 84.683L 7.69074 84.7264L 7.84942 84.7529L 8.00932 84.7617L 8.1692 84.7535L 8.32774 84.7278L 8.48254 84.6859L 8.63174 84.6271L 8.77398 84.5529L 8.90652 84.4639L 9.02965 84.361L 9.13998 84.2456L 9.23708 84.1192L 9.32059 83.9831L 9.38805 83.8391L 9.44009 83.6884L 22.2577 38.3303L 22.2925 38.1744L 22.3101 38.0163L 22.3103 37.8576L 22.2937 37.6987L 22.2595 37.5436L 22.2086 37.3922L 22.1413 37.2474L 22.059 37.1114L 21.9628 36.9842L 21.8524 36.8681L 21.7299 36.7651L 21.5983 36.6755L 21.4561 36.6005L 21.3078 36.5409L 21.153 36.4983Z"/>
</defs>
</svg>
