<svg width="1500" height="500" viewBox="0 0 1500 500" version="1.1" xmlns="http://www.w3.org/2000/svg" xmlns:xlink="http://www.w3.org/1999/xlink">
<title>cover-blush</title>
<desc>Created using Figma</desc>
<g id="Canvas" transform="translate(1806 -446)">
<clipPath id="clip-0" clip-rule="evenodd">
<path d="M -1806 446L -306 446L -306 946L -1806 946L -1806 446Z" fill="#FFFFFF"/>
</clipPath>
<g id="cover-blush" clip-path="url(#clip-0)">
<g id="Rectangle 4">
<use xlink:href="#path0_fill" transform="translate(-1806 446)" fill="url(#paint0_radial)"/>
</g>
<g id="Group">
<g id="cluster-2">
<g id="Union">
<use xlink:href="#path1_fill" transform="matrix(0.987273 0.159037 -0.159463 0.987204 -1220.68 470.48)" fill="#FFFFFF" fill-opacity="0.1"/>
</g>
</g>
<g id="cluster-1">
<g id="Union">
<use xlink:href="#path2_fill" transform="matrix(0.951096 -0.308895 0.309663 0.950846 -1792 480.12)" fill="#FFFFFF" fill-opacity="0.1"/>
</g>
</g>
<g id="cluster-3">
<g id="Union">
<use xlink:href="#path3_fill" transform="matrix(-0.966015 -0.258488 -0.259151 0.965837 -293.673 648.469)" fill="#FFFFFF" fill-opacity="0.1"/>
</g>
</g>
<g id="cluster-5">
<g id="Union">
<use xlink:href="#path4_fill" transform="translate(-1625 433)" fill="#FFFFFF" fill-opacity="0.2"/>
</g>
</g>
<g id="cluster-5">
<g id="Union">
<use xlink:href="#path5_fill" transform="translate(-1011 495)" fill="#FFFFFF" fill-opacity="0.2"/>
</g>
</g>
<g id="cluster-1">
<g id="Union">
<use xlink:href="#path6_fill" transform="matrix(-0.951096 0.308895 -0.309663 -0.950846 -471.584 602.631)" fill="#FFFFFF" fill-opacity="0.15"/>
</g>
</g>
<g id="cluster-5">
<g id="Union">
<use xlink:href="#path7_fill" transform="matrix(-1 0 0 1 -608 404)" fill="#FFFFFF" fill-opacity="0.1"/>
</g>
</g>
<g id="cluster-4">
<g id="Union">
<use xlink:href="#path8_fill" transform="matrix(0.973628 -0.228144 0.228739 0.973488 -1501 520.587)" fill="#FFFFFF" fill-opacity="0.15"/>
</g>
</g>
<g id="cluster-4">
<g id="Union">
<use xlink:href="#path9_fill" transform="matrix(-0.966015 0.258488 -0.259151 -0.965837 -773.441 553.284)" fill="#FFFFFF" fill-opacity="0.15"/>
</g>
</g>
<g id="cluster-4">
<g id="Union">
<use xlink:href="#path10_fill" transform="matrix(0.866323 0.499485 -0.500515 0.865728 -362.964 391.74)" fill="#FFFFFF" fill-opacity="0.1"/>
</g>
</g>
<g id="cluster-4">
<g id="Union">
<use xlink:href="#path11_fill" transform="matrix(-0.966015 0.258488 -0.259151 -0.965837 -1710.37 737.728)" fill="#FFFFFF" fill-opacity="0.2"/>
</g>
</g>
</g>
</g>
</g>
<defs>
<radialGradient id="paint0_radial" cx="0.5" cy="0.5" r="0.5" gradientUnits="userSpaceOnUse" gradientTransform="matrix(0.00018031 -1000 3000 0.000383612 -750 1000)">
<stop offset="0" stop-color="#FE88AE"/>
<stop offset="0.966667" stop-color="#64006B"/>
</radialGradient>
<path id="path0_fill" d="M 0 0L 1500 0L 1500 500L 0 500L 0 0Z"/>
<path id="path1_fill" fill-rule="evenodd" d="M 90.1649 3.7433C 90.1649 5.81066 88.4911 7.48659 86.4263 7.48661C 84.3615 7.48661 82.6877 5.81064 82.6878 3.74329C 82.6878 1.67593 84.3615 -1.08495e-06 86.4263 5.2677e-13C 88.491 1.08495e-06 90.1648 1.67596 90.1649 3.7433ZM 18.3994 26.2029L 20.3053 26.5699C 21.185 26.7167 21.9181 27.4506 21.9913 28.3314C 22.2112 29.9462 20.8185 31.1205 19.3524 30.8269L 17.4465 30.46C 16.3469 30.1664 15.174 30.9004 14.9541 32.0747L 14.5876 33.9831C 14.3677 35.1574 13.1948 35.9648 12.0219 35.6712C 10.8491 35.451 10.116 34.2767 10.3359 33.1023L 10.7024 31.1939C 10.9957 30.093 10.2626 28.9186 9.08975 28.6984L 7.18385 28.3314C 5.93758 28.0379 5.2046 26.8635 5.49777 25.6157C 5.79102 24.5147 7.03724 23.8542 8.21009 24.0744L 9.96935 24.4414C 11.069 24.7349 12.2419 24.001 12.4617 22.8266L 12.8282 20.9183C 13.1215 19.7439 14.2944 18.9365 15.4672 19.2301C 16.6401 19.4503 17.3732 20.6247 17.1532 21.7991L 16.7867 23.7074C 16.4935 24.8084 17.2266 25.9827 18.3994 26.2029ZM 3.7385 58.0576C 5.80335 58.0575 7.47708 56.3816 7.47712 54.3142C 7.47705 52.2469 5.80324 50.5709 3.73851 50.5709C 1.67378 50.5709 4.57194e-05 52.2469 9.36544e-10 54.3142C -4.57175e-05 56.3816 1.67377 58.0576 3.7385 58.0576ZM 24.1157 38.0661L 23.9544 38.0346L 23.791 38.0206L 23.6268 38.0251L 23.4633 38.0486L 23.3042 38.0897L 23.151 38.1484L 23.0051 38.224L 22.8681 38.3157L 22.7427 38.4222L 22.6298 38.5418L 22.5309 38.6732L 22.4473 38.8148L 22.3806 38.9653L 22.3307 39.1224L 22.2985 39.2838L 22.2852 39.4475L 22.2897 39.6127L 22.3131 39.7756L 22.3542 39.9349L 22.4129 40.0883L 22.4883 40.2344L 44.0489 76.7721C 41.9606 77.1733 40.6598 77.6386 40.3907 78.1687C 38.3382 82.2056 39.4378 113.4 41.8569 115.235C 42.7151 115.879 60.3858 116.471 78.6635 116.627L 78.6558 116.629C 83.6251 116.919 87.0385 123.059 89.3767 127.265C 90.5911 129.449 91.5156 131.112 92.2172 131.162C 93.0391 131.219 94.4309 128.982 96.1383 126.239C 98.8469 121.886 102.35 116.257 105.632 116.482C 105.794 116.493 105.894 116.48 105.938 116.448C 113.352 116.233 118.617 115.846 119.486 115.235C 122.785 112.959 123.005 81.9853 120.953 78.1687C 118.943 74.572 66.2651 73.8612 47.1693 76.2889L 25.0129 38.7414L 24.9213 38.6042L 24.8151 38.4787L 24.6955 38.3656L 24.5643 38.2665L 24.4228 38.1836L 24.2726 38.1161L 24.1157 38.0661ZM 69.4371 7.34262L 69.5895 7.36022L 69.739 7.39326L 69.885 7.4424L 70.0242 7.50627L 70.1569 7.58408L 70.28 7.67584L 70.3929 7.78007L 70.4941 7.89533L 70.5835 8.0201L 70.659 8.1544L 70.7198 8.29533L 70.7661 8.4414L 70.7962 8.59254L 70.8108 8.74524L 70.8094 8.89862L 70.7917 9.05132L 70.7587 9.20182L 70.7096 9.34711L 70.6458 9.4866L 70.5681 9.61943L 70.4765 9.74276L 70.3725 9.85578L 70.2574 9.95778L 70.1327 10.0466L 69.9986 10.1222L 69.8578 10.1831L 69.7119 10.2293L 28.1481 20.9454L 27.9972 20.9755L 27.8446 20.9902L 27.6914 20.9887L 27.539 20.9711L 27.3887 20.9381L 27.2436 20.8889L 27.1043 20.8251L 26.9717 20.7473L 26.8485 20.6555L 26.7356 20.5513L 26.6337 20.4361L 26.545 20.3112L 26.4695 20.1777L 26.4087 20.0367L 26.3625 19.8899L 26.3324 19.7395L 26.3177 19.5861L 26.3192 19.4327L 26.3368 19.28L 26.3698 19.1303L 26.419 18.9842L 26.4827 18.8447L 26.5604 18.7119L 26.6521 18.5886L 26.7561 18.4756L 26.8712 18.3743L 26.9958 18.2847L 27.1292 18.2091L 27.27 18.1482L 27.4166 18.102L 68.9804 7.38589L 69.1306 7.35582L 69.2838 7.34116L 69.4371 7.34262ZM 63.4083 96.2989C 63.4082 98.3662 61.7345 100.042 59.6696 100.042C 57.6049 100.042 55.9311 98.3662 55.9311 96.2989C 55.9312 94.2315 57.6049 92.5556 59.6697 92.5556C 61.7344 92.5556 63.4082 94.2315 63.4083 96.2989ZM 80.7817 100.041C 82.8465 100.041 84.5203 98.3652 84.5203 96.2978C 84.5202 94.2305 82.8464 92.5546 80.7817 92.5546C 78.717 92.5546 77.0432 94.2305 77.0432 96.2978C 77.0431 98.3652 78.7169 100.041 80.7817 100.041ZM 101.893 100.041C 103.958 100.041 105.632 98.3653 105.632 96.2979C 105.632 94.2306 103.958 92.5547 101.893 92.5547C 99.8286 92.5547 98.1548 94.2306 98.1548 96.2979C 98.1547 98.3653 99.8285 100.041 101.893 100.041Z"/>
<path id="path2_fill" fill-rule="evenodd" d="M 32.5661 4.75075L 34.0808 4.75074C 34.7541 4.75075 35.4272 5.14199 35.5956 5.75679C 35.9882 6.93053 35.1468 8.04837 34.0247 8.04838L 32.5661 8.04833C 31.6685 8.04835 30.9392 8.77499 30.9392 9.66922L 30.9953 14.3082C 30.9953 15.2025 30.266 15.985 29.3123 15.985C 28.4147 15.9849 27.6293 15.2025 27.6293 14.3082L 27.5731 9.72511C 27.5731 8.83087 26.8438 8.10424 25.9462 8.10426L 24.4876 8.10425C 23.5339 8.10428 22.7485 7.32174 22.8046 6.3716C 22.8046 5.42144 23.6461 4.75076 24.5437 4.75076L 25.9462 4.75076C 26.8438 4.75075 27.5731 4.02417 27.5732 3.12987L 27.5731 1.67672C 27.5731 0.782427 28.3025 -4.91677e-05 29.2562 2.31723e-09C 30.1538 -1.93582e-05 30.9392 0.78246 30.9392 1.67675L 30.9392 3.12989C 30.9392 4.02418 31.6685 4.75075 32.5661 4.75075ZM 36.3378 12.5029L 36.1874 12.4732L 36.0348 12.4637L 35.8823 12.4755L 35.7324 12.5079L 35.5889 12.5605L 35.4531 12.6314L 35.3291 12.7203L 35.218 12.8254L 35.1221 12.945L 35.0435 13.0758L 34.9841 13.216L 34.9437 13.3636L 34.9241 13.5151L 34.9257 13.6677L 34.9476 13.8186L 34.9902 13.965L 51.0638 57.8459C 29.4657 57.3427 2.61425 58.3739 1.26215 60.8659C -0.701383 64.443 -0.476935 93.9537 2.6647 96.0777C 4.31924 97.2231 22.4166 97.5447 40.3081 97.4192L 40.3125 97.4191C 46.007 97.3791 51.6804 97.2939 56.7961 97.1755C 78.7477 96.8391 87.7974 96.5818 87.7975 95.5747C 87.7975 95.2964 87.2502 94.8988 86.428 94.3012C 83.9519 92.5016 78.9818 88.8894 78.952 81.2671C 79.3749 72.5908 79.1839 62.9552 78.1201 60.8659C 77.3211 59.2738 66.6387 58.2941 53.4759 57.9092L 37.0985 13.1987L 37.0363 13.059L 36.9555 12.9293L 36.8578 12.812L 36.7451 12.7086L 36.6188 12.6219L 36.4825 12.5526L 36.3378 12.5029ZM 43.1131 10.2282C 44.6313 10.2282 45.862 9.00206 45.862 7.48954C 45.862 5.97696 44.6313 4.75082 43.1131 4.75084C 41.5949 4.75081 40.3641 5.977 40.3642 7.48952C 40.3642 9.00204 41.5949 10.2282 43.1131 10.2282ZM 63.2533 78.1365C 63.2534 80.0811 61.6709 81.6576 59.719 81.6576C 57.767 81.6576 56.1846 80.0812 56.1847 78.1365C 56.1846 76.1918 57.7671 74.6153 59.719 74.6153C 61.671 74.6153 63.2533 76.1918 63.2533 78.1365ZM 39.5789 81.6577C 41.5309 81.6576 43.1133 80.0812 43.1132 78.1365C 43.1133 76.1918 41.5309 74.6153 39.5789 74.6153C 37.627 74.6153 36.0446 76.1918 36.0446 78.1365C 36.0446 80.0812 37.6269 81.6576 39.5789 81.6577ZM 19.4386 81.6576C 21.3905 81.6577 22.9729 80.0812 22.9729 78.1365C 22.9729 76.1918 21.3906 74.6153 19.4386 74.6153C 17.4866 74.6153 15.9042 76.1918 15.9043 78.1365C 15.9042 80.0812 17.4866 81.6577 19.4386 81.6576Z"/>
<path id="path3_fill" fill-rule="evenodd" d="M 51.5606 7.73854C 53.6997 7.73849 55.4339 6.00618 55.434 3.86926C 55.4341 1.73237 53.6998 1.81631e-05 51.5605 0C 49.4213 1.54639e-05 47.6872 1.73236 47.6871 3.86925C 47.687 6.00617 49.4213 7.73852 51.5606 7.73854ZM 15.4085 27.2365L 13.4338 26.8572C 12.2186 26.6296 11.459 25.4156 11.763 24.2777L 12.1426 22.3051C 12.3704 21.0912 11.6111 19.8773 10.3959 19.6498C 9.18054 19.3462 7.96545 20.1808 7.66154 21.3947L 7.28197 23.3673C 7.05413 24.5812 5.83893 25.3398 4.69966 25.0363L 2.87688 24.657C 1.66165 24.4294 0.370511 25.1122 0.0667309 26.2502C -0.237055 27.54 0.522512 28.7539 1.81344 29.0573L 3.78834 29.4367C 5.00332 29.6643 5.7629 30.8781 5.45912 32.0162L 5.07931 33.9887C 4.85147 35.2026 5.61104 36.4165 6.82626 36.6441C 8.04137 36.9475 9.2567 36.113 9.48453 34.8992L 9.8641 32.9266C 10.0919 31.7127 11.3072 30.954 12.4464 31.2575L 14.4211 31.6368C 15.9402 31.9403 17.3832 30.7264 17.1554 29.0573C 17.0794 28.1469 16.3198 27.3882 15.4085 27.2365ZM 17.612 39.6514L 17.4562 39.6196L 17.2983 39.6044L 17.1387 39.6059L 16.9808 39.6234L 16.8259 39.6575L 16.6747 39.7083L 16.5304 39.7743L 16.3928 39.8547L 16.2652 39.9488L 16.1484 40.0566L 16.0428 40.1749L 15.9502 40.3046L 15.8719 40.4427L 15.8088 40.5884L 15.761 40.7394L 15.7292 40.8957L 15.7139 41.0534L 15.7146 41.212L 15.7329 41.3698L 15.767 41.5253L 15.8179 41.6756L 15.8832 41.8204L 15.9638 41.957L 35.182 70.986C 22.0143 71.4472 11.6449 72.4861 10.8123 74.1227C 8.68581 78.2955 9.82507 110.539 12.3313 112.436C 13.3176 113.175 35.7189 113.847 56.6486 113.912L 56.534 113.954C 61.6758 113.954 64.6849 119.985 66.7472 124.118C 67.8226 126.274 68.6406 127.913 69.3694 127.913C 70.2209 127.913 71.2088 125.77 72.4204 123.141C 74.1945 119.291 76.4486 114.4 79.4585 113.668C 86.7389 113.441 91.8724 113.047 92.7618 112.436C 96.1796 110.084 96.4074 78.0679 94.2809 74.1228C 92.7395 71.3701 62.4202 70.2528 38.752 70.8767L 18.4983 40.2834L 18.4033 40.1552L 18.2962 40.0383L 18.1769 39.9329L 18.0478 39.8411L 17.9095 39.7621L 17.7639 39.6992L 17.612 39.6514ZM 37.9262 8.80459L 38.0293 8.81594L 38.1311 8.83414L 38.2323 8.85923L 38.3309 8.89106L 38.4267 8.92977L 38.5201 8.97528L 38.6103 9.0261L 38.697 9.08376L 38.7791 9.14676L 38.8572 9.21576L 38.9294 9.28938L 38.9977 9.3675L 39.0594 9.45024L 39.1163 9.53749L 39.1665 9.62851L 39.2104 9.72183L 39.2476 9.81891L 39.2787 9.91753L 39.3022 10.0184L 39.3197 10.1209L 39.3296 10.2233L 39.3326 10.3272L 39.3282 10.4304L 39.3167 10.5336L 39.2985 10.636L 39.2734 10.7361L 39.2417 10.8348L 39.2029 10.9312L 39.1579 11.0244L 39.1064 11.114L 39.0493 11.2005L 38.9856 11.2824L 38.9171 11.3605L 38.8435 11.4334L 38.7645 11.5009L 38.6818 11.5631L 38.5953 11.6193L 38.504 11.6693L 20.504 20.8493L 20.4098 20.8933L 20.3134 20.9305L 20.2148 20.9616L 20.1138 20.9859L 20.0112 21.0026L 19.9077 21.0124L 19.8046 21.0155L 19.7004 21.0109L 19.5971 21.0003L 19.4953 20.9821L 19.3943 20.9563L 19.2965 20.9244L 19.2 20.8865L 19.1066 20.841L 19.0161 20.7901L 18.9297 20.7325L 18.8475 20.6695L 18.77 20.6004L 18.6973 20.5269L 18.6295 20.4487L 18.5673 20.3653L 18.5111 20.2788L 18.4602 20.1877L 18.4162 20.0945L 18.3791 19.9974L 18.3487 19.8987L 18.3242 19.7978L 18.3077 19.6954L 18.2977 19.5922L 18.2946 19.489L 18.2985 19.3851L 18.3098 19.2826L 18.3281 19.1803L 18.3532 19.0801L 18.385 18.9814L 18.4237 18.8851L 18.4685 18.7918L 18.5203 18.7023L 18.5779 18.6158L 18.641 18.5331L 18.7093 18.4557L 18.7831 18.3829L 18.8619 18.3153L 18.9448 18.2532L 19.0322 18.197L 19.1224 18.1469L 37.1225 8.9669L 37.2167 8.92291L 37.3133 8.88501L 37.4126 8.85463L 37.5137 8.83036L 37.6154 8.81368L 37.7187 8.8038L 37.8229 8.80078L 37.9262 8.80459ZM 74.5337 96.7314C 72.3944 96.7313 70.6603 94.999 70.6602 92.8621C 70.6602 90.7251 72.3944 88.9928 74.5338 88.9928C 76.6729 88.9928 78.4072 90.7252 78.4071 92.8621C 78.407 94.999 76.6728 96.7313 74.5337 96.7314ZM 52.6604 96.7313C 50.5211 96.7313 48.7871 94.999 48.7869 92.8621C 48.787 90.7251 50.5212 88.9928 52.6605 88.9928C 54.7996 88.9928 56.5339 90.7252 56.5338 92.8621C 56.5337 94.999 54.7996 96.7313 52.6604 96.7313ZM 26.9134 92.8621C 26.9135 94.9991 28.6476 96.7314 30.7869 96.7314C 32.926 96.7314 34.6602 94.999 34.6603 92.8621C 34.6604 90.7252 32.9261 88.9929 30.787 88.9929C 28.6476 88.9929 26.9135 90.7252 26.9134 92.8621Z"/>
<path id="path4_fill" fill-rule="evenodd" d="M 68.0004 0.0609131L 67.8271 0.0195923L 67.6498 0L 67.4717 0.00280762L 67.295 0.0272827L 67.1233 0.0734863L 66.9587 0.140686L 66.8033 0.227478L 66.6608 0.332458L 66.5331 0.454956L 66.4209 0.592102L 26.7585 56.0956L 26.6655 56.2454L 26.5918 56.405L 26.5392 56.5729L 26.5081 56.7465L 26.4995 56.9222L 26.5137 57.0972L 26.5492 57.2693L 26.6067 57.4359L 26.6847 57.5934L 26.7826 57.7411L 26.8983 57.8748L 27.0295 57.993L 27.1757 58.0945L 27.3325 58.1771L 27.4993 58.2394L 27.6724 58.2808L 27.8497 58.3004L 28.0278 58.2975L 28.2045 58.273L 28.3762 58.2269L 28.5408 58.1597L 28.6962 58.0729L 28.8389 57.9679L 28.9665 57.8454L 29.0786 57.7082L 68.7411 2.20471L 68.834 2.05493L 68.9078 1.89539L 68.9603 1.72742L 68.9916 1.55383L 69 1.37811L 68.9858 1.20319L 68.9503 1.03101L 68.8929 0.86438L 68.8148 0.706909L 68.7169 0.559204L 68.6013 0.425537L 68.47 0.307251L 68.3239 0.20575L 68.1671 0.123169L 68.0004 0.0609131ZM 0.00378082 51.3942C 0.0924039 49.503 1.72082 48.0395 3.6372 48.127C 5.55444 48.2144 7.03796 49.8207 6.94934 51.7112C 6.86059 53.6024 5.2323 55.0659 3.31579 54.9785C 1.39941 54.8909 -0.0849643 53.2847 0.00378082 51.3942ZM 25.79 62.8513L 23.8744 62.8513C 22.7391 62.8513 21.8166 61.9414 21.8166 60.8215L 21.8166 59.0017C 21.8166 57.8818 20.8234 56.902 19.6881 56.902C 18.4819 56.902 17.5596 57.8818 17.5596 59.0017L 17.5596 60.8215C 17.5596 61.9414 16.6372 62.8513 15.5019 62.8513L 13.7281 62.8513C 12.5929 62.8513 11.5286 63.6912 11.5286 64.881C 11.4576 66.0709 12.4509 67.0508 13.6572 67.0508L 15.5019 67.0508C 16.6372 67.0508 17.5596 67.9607 17.5596 69.0806L 17.6305 70.9003C 17.6305 72.0202 18.6239 73.0001 19.759 73.0001C 20.9653 73.0001 21.8877 72.0202 21.8877 70.9003L 21.8166 69.0106C 21.8166 67.8907 22.7391 66.9808 23.8744 66.9808L 25.7191 66.9808C 27.1382 66.9808 28.2024 65.5809 27.7058 64.1111C 27.4929 63.3412 26.6415 62.8513 25.79 62.8513Z"/>
<path id="path5_fill" fill-rule="evenodd" d="M 75.8845 0.0684204L 75.6912 0.0220337L 75.4932 0L 75.2945 0.00317383L 75.0974 0.0306396L 74.9057 0.0825806L 74.7221 0.15802L 74.5487 0.255493L 74.3895 0.373474L 74.247 0.511047L 74.1219 0.665161L 29.861 63.0114L 29.7573 63.1797L 29.6749 63.3589L 29.6163 63.5476L 29.5815 63.7426L 29.572 63.9399L 29.5878 64.1365L 29.6274 64.3299L 29.6915 64.517L 29.7786 64.6939L 29.8879 64.8598L 30.0169 65.0099L 30.1634 65.1428L 30.3265 65.2568L 30.5015 65.3496L 30.6876 65.4196L 30.8808 65.466L 31.0787 65.488L 31.2775 65.4848L 31.4747 65.4573L 31.6662 65.4054L 31.8499 65.33L 32.0234 65.2325L 32.1824 65.1145L 32.325 64.9769L 32.4501 64.8228L 76.711 2.47656L 76.8148 2.30829L 76.8972 2.12903L 76.9558 1.94037L 76.9905 1.74536L 77.0001 1.54803L 76.9842 1.3515L 76.9446 1.15808L 76.8804 0.970947L 76.7934 0.794067L 76.6842 0.628174L 76.555 0.478027L 76.4086 0.345154L 76.2454 0.23114L 76.0705 0.138367L 75.8845 0.0684204ZM 0.00421649 57.7305C 0.103093 55.6061 1.92023 53.9622 4.0589 54.0605C 6.19831 54.1587 7.85395 55.9631 7.75495 58.0866C 7.65595 60.211 5.83881 61.8549 3.70026 61.7567C 1.56159 61.6584 -0.0947825 59.854 0.00421649 57.7305ZM 28.7801 70.6001L 26.6423 70.6001C 25.3754 70.6001 24.346 69.578 24.346 68.3201L 24.346 66.2759C 24.346 65.018 23.2376 63.9173 21.9706 63.9173C 20.6247 63.9173 19.5953 65.018 19.5953 66.2759L 19.5953 68.3201C 19.5953 69.578 18.566 70.6001 17.2991 70.6001L 15.3196 70.6001C 14.0528 70.6001 12.8652 71.5435 12.8652 72.8801C 12.786 74.2166 13.8945 75.3174 15.2405 75.3174L 17.2991 75.3174C 18.566 75.3174 19.5953 76.3394 19.5953 77.5974L 19.6745 79.6415C 19.6745 80.8994 20.783 82.0001 22.0499 82.0001C 23.3959 82.0001 24.4252 80.8994 24.4252 79.6415L 24.346 77.5187C 24.346 76.2608 25.3754 75.2387 26.6423 75.2387L 28.7009 75.2387C 30.2845 75.2387 31.4721 73.6663 30.9179 72.0153C 30.6804 71.1505 29.7302 70.6001 28.7801 70.6001Z"/>
<path id="path6_fill" fill-rule="evenodd" d="M 59.3839 101.575C 82.3181 101.224 91.7733 100.955 91.7732 99.9025C 91.7732 99.6116 91.2011 99.1959 90.3418 98.5713C 87.7529 96.6898 82.5558 92.9127 82.5272 84.9415C 82.9688 75.8737 82.7691 65.8056 81.6575 63.6221C 80.8222 61.9579 69.6562 60.9338 55.8975 60.5315L 38.7786 13.7964L 38.7134 13.6504L 38.629 13.5148L 38.527 13.3921L 38.4092 13.2841L 38.2772 13.1935L 38.1347 13.1211L 37.9835 13.0691L 37.8262 13.0381L 37.6667 13.0282L 37.5071 13.0404L 37.3506 13.0743L 37.2005 13.1292L 37.0587 13.2035L 36.9292 13.2964L 36.8128 13.4061L 36.7126 13.5311L 36.6306 13.6679L 36.5684 13.8146L 36.5262 13.9688L 36.5057 14.1271L 36.5074 14.2866L 36.5303 14.4443L 36.5749 14.5974L 53.3762 60.4654C 30.8001 59.9393 2.73263 61.0172 1.31926 63.6221C -0.733142 67.3611 -0.498473 98.2082 2.78521 100.428C 5.06578 102.007 37.2339 102.088 59.3839 101.575ZM 20.319 85.3553C 22.3594 85.3554 24.0133 83.7075 24.0134 81.6747C 24.0133 79.6419 22.3594 77.9941 20.3189 77.9941C 18.2787 77.9941 16.6246 79.6419 16.6245 81.6747C 16.6246 83.7075 18.2785 85.3553 20.319 85.3553ZM 41.3712 85.3554C 43.4116 85.3554 45.0656 83.7075 45.0656 81.6748C 45.0655 79.642 43.4116 77.9942 41.3712 77.9941C 39.3309 77.9942 37.6768 79.642 37.6767 81.6747C 37.6769 83.7075 39.3307 85.3554 41.3712 85.3554ZM 66.1176 81.6747C 66.1176 83.7075 64.4636 85.3554 62.4232 85.3553C 60.3827 85.3553 58.7289 83.7075 58.7287 81.6747C 58.7288 79.6419 60.3829 77.9941 62.4232 77.9941C 64.4636 77.9941 66.1175 79.6419 66.1176 81.6747ZM 34.0411 4.96592L 35.6244 4.96591C 36.328 4.96587 37.032 5.37489 37.2078 6.01752C 37.6182 7.24436 36.7387 8.41286 35.5659 8.41285L 34.0411 8.41284C 33.1029 8.41285 32.3405 9.17231 32.3406 10.1071L 32.3992 14.9562C 32.3993 15.8909 31.6368 16.7088 30.6401 16.7089C 29.7016 16.7088 28.8808 15.8909 28.8807 14.9561L 28.822 10.1655C 28.8222 9.23077 28.0599 8.4713 27.1214 8.47124L 25.5969 8.47127C 24.5999 8.47126 23.7789 7.6533 23.8376 6.66015C 23.8375 5.66695 24.7173 4.96591 25.6555 4.9659L 27.1215 4.96588C 28.0597 4.96586 28.8221 4.20644 28.822 3.27164L 28.8222 1.75269C 28.8221 0.817922 29.5843 -1.43518e-05 30.5813 1.91874e-10C 31.5196 -1.44655e-05 32.3406 0.817917 32.3405 1.75264L 32.3405 3.27166C 32.3406 4.20643 33.1029 4.96593 34.0411 4.96592ZM 45.0656 10.6913C 46.6525 10.6913 47.939 9.4096 47.9391 7.82861C 47.9389 6.24752 46.6525 4.96588 45.0656 4.9659C 43.4787 4.96592 42.1923 6.2476 42.1922 7.82858C 42.1921 9.4096 43.4788 10.6913 45.0656 10.6913Z"/>
<path id="path7_fill" fill-rule="evenodd" d="M 82.783 0.0742188L 82.5722 0.0238647L 82.3563 0L 82.1395 0.00341797L 81.9244 0.0332642L 81.7154 0.0895996L 81.515 0.171509L 81.3259 0.277344L 81.1522 0.405334L 80.9968 0.554688L 80.8603 0.721924L 32.5756 68.3905L 32.4625 68.5731L 32.3726 68.7676L 32.3087 68.9725L 32.2707 69.1841L 32.2603 69.3983L 32.2777 69.6116L 32.3208 69.8215L 32.3907 70.0246L 32.4858 70.2166L 32.6049 70.3967L 32.7458 70.5596L 32.9056 70.7039L 33.0835 70.8276L 33.2744 70.9283L 33.4774 71.0042L 33.6882 71.0546L 33.9041 71.0785L 34.1209 71.0751L 34.336 71.0452L 34.545 70.9889L 34.7454 70.9069L 34.9345 70.8011L 35.1082 70.6732L 35.2636 70.5238L 35.4001 70.3566L 83.6848 2.68799L 83.7979 2.50537L 83.8878 2.31079L 83.9517 2.10602L 83.9897 1.89441L 84.0001 1.68018L 83.9827 1.46686L 83.9397 1.25696L 83.8697 1.05383L 83.7746 0.861877L 83.6555 0.681824L 83.5146 0.518799L 83.3548 0.374634L 83.177 0.250854L 82.986 0.150208L 82.783 0.0742188ZM 0.00459259 62.6585C 0.112503 60.3528 2.09492 58.5685 4.42793 58.6752C 6.76179 58.7819 8.56795 60.7402 8.46004 63.045C 8.35201 65.3508 6.3697 67.1351 4.03657 67.0284C 1.70357 66.9217 -0.103318 64.9633 0.00459259 62.6585ZM 31.3964 76.6267L 29.0643 76.6267C 27.6822 76.6267 26.5594 75.5174 26.5594 74.1521L 26.5594 71.9335C 26.5594 70.5681 25.3501 69.3735 23.9681 69.3735C 22.4996 69.3735 21.3768 70.5681 21.3768 71.9335L 21.3768 74.1521C 21.3768 75.5174 20.2539 76.6267 18.8718 76.6267L 16.7124 76.6267C 15.3304 76.6267 14.0347 77.6507 14.0347 79.1014C 13.9483 80.552 15.1575 81.7466 16.6261 81.7466L 18.8718 81.7466C 20.2539 81.7466 21.3768 82.856 21.3768 84.2213L 21.4631 86.4399C 21.4631 87.8053 22.6724 88.9999 24.0544 88.9999C 25.5228 88.9999 26.6457 87.8053 26.6457 86.4399L 26.5594 84.136C 26.5594 82.7706 27.6822 81.6613 29.0643 81.6613L 31.3101 81.6613C 33.0377 81.6613 34.3333 79.9547 33.7286 78.1627C 33.4696 77.2241 32.4329 76.6267 31.3964 76.6267Z"/>
<path id="path8_fill" fill-rule="evenodd" d="M 47.5895 7.07658L 49.8551 7.07658C 50.862 7.07656 51.8689 7.65938 52.1207 8.57514C 52.7081 10.3235 51.4494 11.9886 49.7711 11.9885L 47.5896 11.9886C 46.247 11.9886 45.1561 13.0709 45.1561 14.4029L 45.2401 16.6508C 45.2401 17.9829 44.1492 19.1484 42.7228 19.1484C 41.3802 19.1484 40.2055 17.9829 40.2055 16.6508L 40.1216 14.4862C 40.1216 13.1541 39.0307 12.0718 37.6882 12.0718L 35.5065 12.0718C 34.0801 12.0718 32.9053 10.9063 32.9892 9.49097C 32.9892 8.07564 34.2479 7.0766 35.5904 7.07656L 37.6882 7.07658C 39.0307 7.0766 40.1215 5.99427 40.1215 4.66221L 40.1215 2.49758C 40.1216 1.16551 41.2123 -1.58712e-05 42.6389 1.19919e-09C 43.9814 -4.31704e-05 45.1562 1.16557 45.1562 2.49764L 45.1562 4.6622C 45.1562 5.99427 46.2469 7.07657 47.5895 7.07658ZM 27.7946 22.3436C 25.5282 22.2395 23.6025 23.9804 23.4976 26.2299C 23.3927 28.4786 25.148 30.3893 27.4145 30.4934C 29.6809 30.5974 31.6066 28.8566 31.7115 26.6071C 31.8164 24.3584 30.0618 22.4477 27.7946 22.3436ZM 0.00446437 110.766C 0.109363 108.517 2.0351 106.776 4.30153 106.88C 6.56797 106.984 8.32333 108.894 8.21837 111.144C 8.11347 113.393 6.18785 115.134 3.92142 115.03C 1.65417 114.925 -0.100379 113.015 0.00446437 110.766ZM 94.3275 128.295L 96.593 128.295C 97.6839 128.295 98.607 128.961 98.8587 129.793C 99.446 131.542 98.1874 133.207 96.5091 133.207L 94.3276 133.207C 92.985 133.207 91.8941 134.289 91.8941 135.621L 91.9781 142.531C 91.9781 143.863 90.8873 145.029 89.4607 145.029C 88.1182 145.029 86.9434 143.863 86.9434 142.531L 86.8596 135.704C 86.8596 134.372 85.7687 133.29 84.4262 133.29L 82.2445 133.29C 80.8181 133.29 79.6433 132.124 79.7272 130.709C 79.7272 129.294 80.9859 128.295 82.3284 128.295L 84.4262 128.295C 85.7688 128.295 86.8595 127.212 86.8595 125.88L 86.8596 123.716C 86.8596 122.384 87.9503 121.218 89.3769 121.218C 90.7194 121.218 91.8942 122.384 91.8942 123.716L 91.8942 125.88C 91.8942 127.212 92.9849 128.295 94.3275 128.295ZM 38.7976 37.4025L 39.0208 37.4541L 39.2348 37.5357L 39.4353 37.6456L 39.6191 37.7813L 39.7827 37.9404L 39.922 38.1202L 40.0361 38.3175L 78.3829 116.493L 78.4693 116.704L 78.5255 116.924L 78.5507 117.15L 78.5449 117.376L 78.508 117.601L 78.4408 117.819L 78.3443 118.024L 78.2201 118.216L 78.0717 118.388L 77.9005 118.539L 77.71 118.665L 77.5035 118.765L 77.2863 118.836L 77.0605 118.876L 76.8323 118.886L 76.604 118.865L 76.3809 118.813L 76.1669 118.732L 75.9663 118.622L 75.7825 118.486L 75.6189 118.327L 75.4796 118.147L 75.3655 117.95L 37.0188 39.7745L 36.9324 39.5638L 36.8761 39.3432L 36.8509 39.1176L 36.8568 38.8903L 36.8937 38.6663L 36.9608 38.449L 37.0573 38.2426L 37.1815 38.0519L 37.33 37.8787L 37.5012 37.7281L 37.6917 37.6015L 37.8981 37.5024L 38.1155 37.4317L 38.3412 37.3909L 38.5693 37.3809L 38.7976 37.4025ZM 23.9565 41.334L 23.777 41.304L 23.5958 41.294L 23.4145 41.3032L 23.2349 41.3315L 23.0596 41.3798L 22.8909 41.4463L 22.7297 41.5296L 22.5796 41.6312L 22.4403 41.7469L 22.3152 41.8776L 22.2054 42.0208L 22.1106 42.1757L 22.0342 42.3388L 21.9755 42.5095L 7.45903 93.8773L 7.41965 94.053L 7.39953 94.232L 7.39947 94.4126L 7.41873 94.5916L 7.45737 94.7681L 7.51444 94.9388L 7.59076 95.1028L 7.68389 95.2577L 7.79298 95.4017L 7.91799 95.5324L 8.05654 95.6498L 8.2067 95.7514L 8.36692 95.8363L 8.53557 95.9029L 8.7101 95.952L 8.88973 95.982L 9.07095 95.992L 9.25226 95.9828L 9.43175 95.9537L 9.60714 95.9062L 9.77575 95.8396L 9.93692 95.7555L 10.0871 95.6548L 10.2264 95.5382L 10.3514 95.4075L 10.4613 95.2643L 10.5562 95.1103L 10.6325 94.9471L 10.6913 94.7765L 25.2077 43.4087L 25.2471 43.2322L 25.2673 43.0532L 25.2673 42.8733L 25.2488 42.6935L 25.2102 42.5179L 25.1522 42.3463L 25.0759 42.1823L 24.9828 42.0283L 24.8737 41.8843L 24.7487 41.7527L 24.6102 41.6362L 24.4609 41.5346L 24.2998 41.4497L 24.132 41.3823L 23.9565 41.334Z"/>
<path id="path9_fill" fill-rule="evenodd" d="M 72.2432 98.262L 73.9784 98.2619C 74.8139 98.2619 75.5208 98.7721 75.7135 99.4097C 76.1634 100.749 75.1994 102.024 73.9142 102.024L 72.2432 102.024C 71.215 102.024 70.3796 102.853 70.3795 103.873L 70.4439 109.166C 70.4439 110.186 69.6085 111.079 68.5159 111.079C 67.4877 111.079 66.588 110.186 66.588 109.166L 66.5237 103.937C 66.5237 102.917 65.6883 102.088 64.66 102.088L 62.9891 102.088C 61.8967 102.088 60.997 101.195 61.0612 100.111C 61.0613 99.0272 62.0252 98.262 63.0535 98.2619L 64.6601 98.262C 65.6883 98.2619 66.5237 97.433 66.5237 96.4127L 66.5238 94.7549C 66.5238 93.7346 67.3592 92.8419 68.4516 92.8419C 69.4798 92.8419 70.3796 93.7346 70.3795 94.7548L 70.3796 96.4127C 70.3796 97.433 71.215 98.2619 72.2432 98.262ZM 0.00342156 84.8366C 0.0838265 83.1143 1.55864 81.7803 3.29447 81.8601C 5.0302 81.9397 6.37462 83.4032 6.29429 85.1261C 6.21401 86.8484 4.73909 88.1823 3.00336 88.1026C 1.26692 88.0223 -0.0769057 86.5595 0.00342156 84.8366ZM 21.2872 17.1131C 19.5514 17.0334 18.0765 18.3667 17.9962 20.0896C 17.9159 21.8119 19.2603 23.2754 20.996 23.355C 22.7319 23.4348 24.2068 22.1014 24.2871 20.3785C 24.3674 18.6562 23.0236 17.1928 21.2872 17.1131ZM 36.4476 5.42002L 38.1827 5.42001C 38.9539 5.42001 39.7251 5.86637 39.9179 6.5678C 40.3678 7.90687 39.4038 9.18216 38.1185 9.18218L 36.4476 9.18215C 35.4194 9.18218 34.584 10.0111 34.5839 11.0313L 34.6482 12.753C 34.6482 13.7732 33.8128 14.666 32.7203 14.6659C 31.692 14.666 30.7923 13.7732 30.7923 12.753L 30.7281 11.0951C 30.7281 10.0749 29.8927 9.24593 28.8644 9.24593L 27.1935 9.24593C 26.1011 9.24593 25.2014 8.35323 25.2656 7.26921C 25.2657 6.18522 26.2296 5.42003 27.2579 5.42004L 28.8645 5.42004C 29.8927 5.42005 30.7281 4.59109 30.7281 3.57082L 30.7281 1.91298C 30.7281 0.892738 31.5636 9.98531e-07 32.656 0C 33.6842 7.09437e-06 34.584 0.892735 34.5839 1.91294L 34.584 3.57085C 34.584 4.59109 35.4194 5.42004 36.4476 5.42002ZM 29.7143 28.647L 29.8852 28.6866L 30.0491 28.749L 30.2026 28.8332L 30.3434 28.9371L 30.4687 29.0589L 30.5754 29.1967L 30.6628 29.3478L 60.0317 89.2231L 60.0979 89.3844L 60.1409 89.5527L 60.1602 89.7262L 60.1557 89.8996L 60.1274 90.0718L 60.0761 90.2382L 60.0021 90.3957L 59.907 90.5424L 59.7933 90.6744L 59.6621 90.7898L 59.5163 90.8867L 59.3582 90.9632L 59.1917 91.0175L 59.0189 91.048L 58.8441 91.0557L 58.6693 91.0397L 58.4984 90.9996L 58.3344 90.9377L 58.1808 90.8535L 58.0401 90.7496L 57.9148 90.6278L 57.8081 90.4901L 57.7208 90.339L 28.3518 30.4637L 28.2857 30.3023L 28.2426 30.1334L 28.2233 29.9606L 28.2278 29.7865L 28.256 29.6149L 28.3075 29.4485L 28.3814 29.2904L 28.4765 29.1444L 28.5902 29.0117L 28.7214 28.8963L 28.8673 28.7994L 29.0254 28.7235L 29.1918 28.6693L 29.3646 28.6381L 29.5394 28.6304L 29.7143 28.647ZM 18.3478 31.6581L 18.2103 31.6351L 18.0715 31.6274L 17.9326 31.6344L 17.7951 31.6561L 17.6608 31.6931L 17.5317 31.7442L 17.4083 31.8079L 17.2932 31.8856L 17.1865 31.9743L 17.0908 32.0744L 17.0066 32.1841L 16.934 32.3027L 16.8754 32.4277L 16.8305 32.5584L 5.7127 71.9014L 5.68255 72.0359L 5.66712 72.1731L 5.66716 72.3114L 5.68193 72.4485L 5.7115 72.5837L 5.75517 72.7144L 5.8136 72.84L 5.88501 72.9586L 5.96851 73.0689L 6.06423 73.169L 6.17027 73.2589L 6.28537 73.3367L 6.40805 73.4018L 6.53728 73.4528L 6.67088 73.4904L 6.80839 73.5134L 6.94724 73.521L 7.0861 73.514L 7.22362 73.4917L 7.35785 73.4554L 7.48704 73.4043L 7.61045 73.3399L 7.72554 73.2628L 7.83214 73.1735L 7.92799 73.0734L 8.01213 72.9637L 8.08472 72.8457L 8.14326 72.7208L 8.18819 72.5901L 19.306 33.2471L 19.3362 33.1119L 19.3516 32.9748L 19.3515 32.8371L 19.3374 32.6993L 19.3079 32.5648L 19.2636 32.4334L 19.205 32.3078L 19.1337 32.1898L 19.0502 32.0795L 18.9544 31.9788L 18.8484 31.8895L 18.734 31.8117L 18.6106 31.7467L 18.4821 31.695L 18.3478 31.6581Z"/>
<path id="path10_fill" fill-rule="evenodd" d="M 49.1326 7.31004L 51.4716 7.31006C 52.5112 7.31002 53.5508 7.91197 53.8108 8.85795C 54.4171 10.664 53.1177 12.384 51.3851 12.384L 49.1326 12.384C 47.7466 12.384 46.6203 13.5021 46.6203 14.8781L 46.7071 17.1999C 46.7071 18.5759 45.5808 19.78 44.1081 19.78C 42.7221 19.78 41.5091 18.576 41.5091 17.2001L 41.4226 14.964C 41.4226 13.588 40.2964 12.47 38.9103 12.47L 36.658 12.47C 35.1852 12.47 33.9725 11.2659 34.059 9.80403C 34.0591 8.34194 35.3584 7.31003 36.7446 7.30995L 38.9103 7.30999C 40.2963 7.31004 41.4227 6.19198 41.4225 4.81606L 41.4225 2.58009C 41.4225 1.20405 42.5488 1.93505e-05 44.0215 0C 45.4075 5.04096e-05 46.6205 1.20397 46.6204 2.57996L 46.6205 4.81598C 46.6204 6.19197 47.7466 7.30999 49.1326 7.31004ZM 28.6957 23.0807C 26.3559 22.9731 24.3677 24.7715 24.2594 27.0951C 24.1512 29.418 25.9634 31.3917 28.3033 31.4992C 30.6431 31.6068 32.6313 29.8084 32.7396 27.4847C 32.8478 25.1619 31.0365 23.1881 28.6957 23.0807ZM 0.0046098 114.419C 0.112833 112.096 2.10113 110.297 4.44091 110.405C 6.78087 110.512 8.59304 112.486 8.48479 114.81C 8.37657 117.133 6.38827 118.932 4.04849 118.824C 1.70774 118.716 -0.103639 116.743 0.0046098 114.419ZM 97.3855 132.526L 99.7246 132.526C 100.851 132.526 101.804 133.214 102.064 134.074C 102.67 135.88 101.371 137.6 99.6381 137.6L 97.3856 137.6C 95.9996 137.6 94.8733 138.718 94.8733 140.094L 94.9599 147.232C 94.9599 148.608 93.8339 149.812 92.3611 149.812C 90.9749 149.812 89.7622 148.608 89.7622 147.232L 89.6755 140.18C 89.6756 138.804 88.5494 137.686 87.1632 137.686L 84.9109 137.686C 83.4382 137.686 82.2254 136.482 82.3119 135.02C 82.3121 133.558 83.6114 132.526 84.9976 132.526L 87.1633 132.526C 88.5493 132.526 89.6756 131.408 89.6755 130.032L 89.6756 127.796C 89.6754 126.42 90.8017 125.216 92.2745 125.216C 93.6605 125.216 94.8734 126.42 94.8734 127.796L 94.8734 130.032C 94.8734 131.408 95.9995 132.526 97.3855 132.526ZM 40.0557 38.6363L 40.2861 38.6897L 40.507 38.774L 40.714 38.8875L 40.9038 39.0276L 41.0728 39.1919L 41.2165 39.3777L 41.3345 39.5814L 80.9242 120.335L 81.0135 120.553L 81.0715 120.78L 81.0975 121.014L 81.0915 121.248L 81.0534 121.48L 80.9842 121.704L 80.8845 121.917L 80.7562 122.115L 80.6029 122.293L 80.4262 122.448L 80.2295 122.579L 80.0163 122.682L 79.792 122.755L 79.5591 122.797L 79.3233 122.807L 79.0877 122.786L 78.8574 122.731L 78.6364 122.648L 78.4294 122.534L 78.2396 122.394L 78.0706 122.23L 77.9269 122.044L 77.8091 121.84L 38.2192 41.0864L 38.1299 40.8689L 38.072 40.6409L 38.0459 40.408L 38.052 40.1731L 38.0902 39.9418L 38.1595 39.7173L 38.2589 39.5041L 38.3872 39.3071L 38.5406 39.1282L 38.7173 38.9726L 38.9139 38.8418L 39.1271 38.7395L 39.3514 38.6664L 39.5844 38.6243L 39.8202 38.6139L 40.0557 38.6363ZM 24.7334 42.6972L 24.5481 42.6662L 24.3609 42.6559L 24.1739 42.6654L 23.9885 42.6946L 23.8073 42.7445L 23.6332 42.8133L 23.467 42.8993L 23.3118 43.0043L 23.1681 43.1238L 23.039 43.2588L 22.9254 43.4067L 22.8276 43.5667L 22.7487 43.7353L 22.6881 43.9115L 7.701 96.9735L 7.6604 97.1549L 7.63959 97.3398L 7.6395 97.5265L 7.65948 97.7113L 7.69941 97.8936L 7.7582 98.07L 7.83715 98.2393L 7.93325 98.3993L 8.04596 98.5481L 8.17501 98.6831L 8.31779 98.8044L 8.47306 98.9093L 8.63845 98.997L 8.81262 99.0658L 8.99272 99.1166L 9.17824 99.1475L 9.36519 99.1579L 9.55244 99.1484L 9.7377 99.1183L 9.91878 99.0693L 10.0929 99.0005L 10.2592 98.9137L 10.4143 98.8096L 10.5581 98.6892L 10.6872 98.5541L 10.8007 98.4062L 10.8987 98.247L 10.9775 98.0786L 11.038 97.9023L 26.0251 44.8404L 26.0658 44.6581L 26.0866 44.4731L 26.0866 44.2873L 26.0675 44.1016L 26.0278 43.9201L 25.968 43.743L 25.889 43.5736L 25.7929 43.4145L 25.6804 43.2656L 25.5512 43.1298L 25.4083 43.0094L 25.2542 42.9045L 25.0877 42.8168L 24.9144 42.7471L 24.7334 42.6972Z"/>
<path id="path11_fill" fill-rule="evenodd" d="M 83.2885 113.285L 85.2889 113.285C 86.252 113.285 87.067 113.873 87.2893 114.609C 87.8079 116.152 86.6966 117.623 85.2148 117.623L 83.2885 117.623C 82.103 117.623 81.1398 118.578 81.1399 119.754L 81.2139 125.856C 81.214 127.032 80.2508 128.062 78.9912 128.062C 77.8058 128.062 76.7685 127.032 76.7685 125.856L 76.6945 119.828C 76.6944 118.652 75.7313 117.696 74.5458 117.696L 72.6195 117.696C 71.36 117.696 70.3227 116.667 70.3969 115.417C 70.3968 114.167 71.5082 113.285 72.6936 113.285L 74.5459 113.285C 75.7313 113.285 76.6945 112.33 76.6945 111.153L 76.6945 109.242C 76.6945 108.066 77.6576 107.037 78.9172 107.037C 80.1026 107.037 81.1399 108.066 81.1398 109.242L 81.1399 111.153C 81.1399 112.33 82.103 113.285 83.2885 113.285ZM 0.003946 97.8072C 0.0965554 95.8216 1.79691 94.2837 3.79808 94.3756C 5.79924 94.4675 7.3492 96.1546 7.25658 98.141C 7.16397 100.127 5.46361 101.665 3.46245 101.573C 1.46054 101.48 -0.0886764 99.7936 0.003946 97.8072ZM 24.5418 19.7297C 22.5406 19.6378 20.8402 21.175 20.7477 23.1614C 20.655 25.147 22.205 26.8341 24.2062 26.926C 26.2074 27.0179 27.9077 25.4807 28.0003 23.4944C 28.0929 21.5087 26.5437 19.8216 24.5418 19.7297ZM 42.0201 6.24868L 44.0205 6.2487C 44.9096 6.2487 45.7987 6.76329 46.021 7.57196C 46.5396 9.11575 45.4283 10.586 43.9465 10.586L 42.0201 10.586C 40.8347 10.586 39.8715 11.5417 39.8716 12.7179L 39.9456 14.7028C 39.9456 15.879 38.9825 16.9082 37.7229 16.9082C 36.5375 16.9082 35.5002 15.879 35.5002 14.7028L 35.4262 12.7914C 35.4261 11.6152 34.4629 10.6595 33.2775 10.6595L 31.3512 10.6595C 30.0917 10.6595 29.0544 9.63034 29.1285 8.38061C 29.1285 7.13087 30.2398 6.24869 31.4253 6.24868L 33.2775 6.24868C 34.4629 6.2487 35.4261 5.29303 35.4261 4.1168L 35.4261 2.20542C 35.4261 1.0292 36.3893 -1.39128e-05 37.6488 1.41055e-10C 38.8342 -8.08095e-06 39.8715 1.0292 39.8715 2.20542L 39.8715 4.1168C 39.8715 5.293 40.8347 6.24869 42.0201 6.24868ZM 34.2571 33.0269L 34.4542 33.0725L 34.6431 33.1445L 34.8202 33.2416L 34.9825 33.3614L 35.1269 33.5018L 35.2499 33.6606L 35.3507 33.8349L 69.2098 102.865L 69.2861 103.05L 69.3358 103.245L 69.358 103.445L 69.3528 103.644L 69.3202 103.843L 69.2609 104.035L 69.1757 104.216L 69.0661 104.385L 68.9349 104.538L 68.7838 104.671L 68.6156 104.782L 68.4334 104.871L 68.2415 104.933L 68.0421 104.968L 67.8406 104.977L 67.6391 104.959L 67.442 104.913L 67.2531 104.841L 67.076 104.744L 66.9137 104.624L 66.7693 104.484L 66.6463 104.325L 66.5455 104.151L 32.6864 35.1213L 32.6101 34.9353L 32.5605 34.7405L 32.5382 34.5413L 32.5434 34.3406L 32.576 34.1429L 32.6353 33.951L 32.7205 33.7687L 32.8302 33.6003L 32.9613 33.4474L 33.1125 33.3144L 33.2806 33.2026L 33.4629 33.1151L 33.6548 33.0526L 33.8541 33.0166L 34.0556 33.0078L 34.2571 33.0269ZM 21.1528 36.4982L 20.9942 36.4717L 20.8342 36.4629L 20.6741 36.471L 20.5156 36.496L 20.3607 36.5386L 20.2118 36.5974L 20.0696 36.671L 19.9369 36.7607L 19.814 36.8628L 19.7036 36.9783L 19.6065 37.1047L 19.5228 37.2414L 19.4554 37.3855L 19.4036 37.5362L 6.58596 82.8944L 6.55117 83.0495L 6.53335 83.2075L 6.5334 83.3671L 6.55039 83.5251L 6.58446 83.6809L 6.63488 83.8317L 6.70231 83.9765L 6.78454 84.1132L 6.88083 84.2404L 6.99127 84.3558L 7.11352 84.4595L 7.24609 84.5491L 7.38765 84.6242L 7.53653 84.683L 7.69063 84.7263L 7.84919 84.7528L 8.00926 84.7616L 8.16926 84.7535L 8.3278 84.7278L 8.48266 84.6859L 8.63162 84.6271L 8.77386 84.5528L 8.90646 84.4639L 9.02948 84.361L 9.13986 84.2455L 9.2369 84.1191L 9.32065 83.9831L 9.38805 83.839L 9.43991 83.6883L 22.2574 38.3302L 22.2923 38.1743L 22.3101 38.0163L 22.3101 37.8575L 22.2938 37.6987L 22.2597 37.5436L 22.2086 37.3922L 22.1412 37.2473L 22.0589 37.1113L 21.9626 36.9841L 21.8522 36.868L 21.73 36.7651L 21.5981 36.6754L 21.4558 36.6004L 21.3076 36.5408L 21.1528 36.4982Z"/>
</defs>
</svg>
