<svg width="1500" height="500" viewBox="0 0 1500 500" version="1.1" xmlns="http://www.w3.org/2000/svg" xmlns:xlink="http://www.w3.org/1999/xlink">
<title>cover-teal</title>
<desc>Created using Figma</desc>
<g id="Canvas" transform="translate(3345 214)">
<clipPath id="clip-0" clip-rule="evenodd">
<path d="M -3345 -214L -1845 -214L -1845 286L -3345 286L -3345 -214Z" fill="#FFFFFF"/>
</clipPath>
<g id="cover-teal" clip-path="url(#clip-0)">
<g id="Rectangle 4">
<use xlink:href="#path0_fill" transform="translate(-3345 -214)" fill="url(#paint0_radial)"/>
</g>
<g id="Group">
<g id="cluster-2">
<g id="Union">
<use xlink:href="#path1_fill" transform="matrix(0.987273 0.159037 -0.159463 0.987204 -2759.68 -189.52)" fill="#FFFFFF" fill-opacity="0.1"/>
</g>
</g>
<g id="cluster-1">
<g id="Union">
<use xlink:href="#path2_fill" transform="matrix(0.951096 -0.308895 0.309663 0.950846 -3331 -179.88)" fill="#FFFFFF" fill-opacity="0.1"/>
</g>
</g>
<g id="cluster-3">
<g id="Union">
<use xlink:href="#path3_fill" transform="matrix(-0.966015 -0.258488 -0.259151 0.965837 -1832.67 -11.5313)" fill="#FFFFFF" fill-opacity="0.1"/>
</g>
</g>
<g id="cluster-5">
<g id="Union">
<use xlink:href="#path4_fill" transform="translate(-3164 -227)" fill="#FFFFFF" fill-opacity="0.2"/>
</g>
</g>
<g id="cluster-5">
<g id="Union">
<use xlink:href="#path5_fill" transform="translate(-2550 -165)" fill="#FFFFFF" fill-opacity="0.2"/>
</g>
</g>
<g id="cluster-1">
<g id="Union">
<use xlink:href="#path6_fill" transform="matrix(-0.951096 0.308895 -0.309663 -0.950846 -2010.58 -57.3689)" fill="#FFFFFF" fill-opacity="0.15"/>
</g>
</g>
<g id="cluster-5">
<g id="Union">
<use xlink:href="#path7_fill" transform="matrix(-1 0 0 1 -2147 -256)" fill="#FFFFFF" fill-opacity="0.1"/>
</g>
</g>
<g id="cluster-4">
<g id="Union">
<use xlink:href="#path8_fill" transform="matrix(0.973628 -0.228144 0.228739 0.973488 -3040 -139.413)" fill="#FFFFFF" fill-opacity="0.15"/>
</g>
</g>
<g id="cluster-4">
<g id="Union">
<use xlink:href="#path9_fill" transform="matrix(-0.966015 0.258488 -0.259151 -0.965837 -2312.44 -106.716)" fill="#FFFFFF" fill-opacity="0.15"/>
</g>
</g>
<g id="cluster-4">
<g id="Union">
<use xlink:href="#path10_fill" transform="matrix(0.866323 0.499485 -0.500515 0.865728 -1901.96 -268.26)" fill="#FFFFFF" fill-opacity="0.1"/>
</g>
</g>
<g id="cluster-4">
<g id="Union">
<use xlink:href="#path11_fill" transform="matrix(-0.966015 0.258488 -0.259151 -0.965837 -3249.37 77.7282)" fill="#FFFFFF" fill-opacity="0.2"/>
</g>
</g>
</g>
</g>
</g>
<defs>
<radialGradient id="paint0_radial" cx="0.5" cy="0.5" r="0.5" gradientUnits="userSpaceOnUse" gradientTransform="matrix(-3.43475e-13 -1000 3000 -0.000157319 -750 1000)">
<stop offset="0" stop-color="#05C6BB"/>
<stop offset="1" stop-color="#028170"/>
</radialGradient>
<path id="path0_fill" d="M 0 0L 1500 0L 1500 500L 0 500L 0 0Z"/>
<path id="path1_fill" fill-rule="evenodd" d="M 90.1649 3.74332C 90.165 5.81066 88.4912 7.48659 86.4264 7.48661C 84.3618 7.48659 82.688 5.81063 82.6879 3.74329C 82.6878 1.67595 84.3618 -2.04984e-05 86.4264 1.88035e-10C 88.4913 -1.83285e-05 90.1651 1.67595 90.1649 3.74332ZM 18.3996 26.2029L 20.3057 26.5699C 21.1852 26.7167 21.9183 27.4506 21.9916 28.3314C 22.2116 29.9462 20.8186 31.1205 19.3525 30.8269L 17.4467 30.46C 16.3471 30.1664 15.1743 30.9003 14.9542 32.0747L 14.5879 33.983C 14.3678 35.1574 13.195 35.9648 12.0222 35.6712C 10.8493 35.451 10.1161 34.2767 10.3362 33.1023L 10.7025 31.1939C 10.9958 30.093 10.2628 28.9186 9.08999 28.6984L 7.18397 28.3314C 5.93794 28.0378 5.20472 26.8635 5.49801 25.6157C 5.79126 24.5147 7.03748 23.8542 8.21033 24.0744L 9.96971 24.4414C 11.0691 24.7349 12.2421 24.001 12.4619 22.8266L 12.8286 20.9182C 13.1218 19.7439 14.2946 18.9365 15.4675 19.2301C 16.6403 19.4503 17.3733 20.6247 17.1535 21.7991L 16.7868 23.7074C 16.4938 24.8083 17.2268 25.9827 18.3996 26.2029ZM 3.7385 58.0576C 5.80335 58.0576 7.47708 56.3816 7.477 54.3143C 7.47717 52.2469 5.80336 50.5709 3.73851 50.571C 1.6739 50.5709 -7.47873e-05 52.2469 2.506e-09 54.3143C 7.47923e-05 56.3816 1.67389 58.0576 3.7385 58.0576ZM 24.1156 38.0662L 23.9545 38.0346L 23.791 38.0207L 23.6268 38.0251L 23.4632 38.0486L 23.3041 38.0897L 23.1509 38.1484L 23.0051 38.224L 22.8681 38.3158L 22.7428 38.4222L 22.6298 38.5418L 22.5309 38.6732L 22.4472 38.8149L 22.3805 38.9653L 22.3307 39.1224L 22.2984 39.2839L 22.2852 39.4475L 22.2897 39.6127L 22.313 39.7757L 22.3541 39.9349L 22.4127 40.0883L 22.4883 40.2344L 44.0488 76.7721C 41.9607 77.1733 40.66 77.6386 40.391 78.1687C 38.3384 82.2055 39.438 113.4 41.8571 115.234C 42.7152 115.879 60.3861 116.471 78.6639 116.627L 78.656 116.629C 83.6254 116.919 87.0387 123.059 89.3769 127.265C 90.5915 129.449 91.5158 131.112 92.2174 131.162C 93.0394 131.219 94.4311 128.982 96.1384 126.239C 98.847 121.886 102.35 116.257 105.632 116.482C 105.795 116.493 105.894 116.48 105.939 116.448C 113.353 116.233 118.617 115.846 119.487 115.235C 122.786 112.959 123.005 81.9853 120.953 78.1686C 118.944 74.5719 66.2651 73.8612 47.1694 76.2889L 25.013 38.7414L 24.9214 38.6042L 24.8151 38.4787L 24.6954 38.3657L 24.5644 38.2665L 24.4229 38.1836L 24.2726 38.1161L 24.1156 38.0662ZM 69.4372 7.34262L 69.5897 7.36022L 69.7392 7.39326L 69.8851 7.4424L 70.0242 7.50629L 70.157 7.58408L 70.2801 7.67584L 70.3932 7.78005L 70.4941 7.89535L 70.5838 8.02008L 70.6591 8.1544L 70.72 8.29533L 70.7663 8.44138L 70.7962 8.59256L 70.8109 8.74524L 70.8095 8.89862L 70.7919 9.05132L 70.7588 9.20182L 70.7098 9.34709L 70.646 9.48658L 70.5683 9.61941L 70.4767 9.74274L 70.3726 9.85578L 70.2575 9.95778L 70.1329 10.0466L 69.9987 10.1222L 69.8579 10.1831L 69.7121 10.2293L 28.1482 20.9454L 27.9973 20.9755L 27.8449 20.9902L 27.6916 20.9887L 27.5391 20.9711L 27.3889 20.9381L 27.2437 20.8889L 27.1045 20.825L 26.9718 20.7473L 26.8486 20.6555L 26.7356 20.5513L 26.6339 20.436L 26.545 20.3113L 26.4695 20.1777L 26.4087 20.0368L 26.3625 19.89L 26.3325 19.7395L 26.3178 19.5861L 26.3193 19.4327L 26.3369 19.28L 26.3698 19.1303L 26.419 18.9842L 26.4827 18.8448L 26.5604 18.7119L 26.6521 18.5886L 26.7562 18.4756L 26.8714 18.3743L 26.9959 18.2847L 27.1294 18.2091L 27.2701 18.1482L 27.4167 18.102L 68.9805 7.38589L 69.1307 7.35582L 69.2839 7.34116L 69.4372 7.34262ZM 63.4083 96.2989C 63.4083 98.3662 61.7346 100.042 59.6698 100.042C 57.6051 100.042 55.9313 98.3662 55.9313 96.2989C 55.9312 94.2315 57.6052 92.5556 59.6698 92.5556C 61.7346 92.5556 63.4084 94.2315 63.4083 96.2989ZM 80.782 100.041C 82.8469 100.041 84.5206 98.3652 84.5205 96.2978C 84.5207 94.2304 82.8469 92.5545 80.7821 92.5545C 78.7174 92.5545 77.0435 94.2305 77.0435 96.2978C 77.0436 98.3652 78.7174 100.041 80.782 100.041ZM 101.894 100.041C 103.958 100.041 105.632 98.3653 105.632 96.2979C 105.632 94.2305 103.958 92.5546 101.894 92.5546C 99.8289 92.5546 98.1549 94.2306 98.155 96.2979C 98.1551 98.3653 99.8289 100.041 101.894 100.041Z"/>
<path id="path2_fill" fill-rule="evenodd" d="M 32.5663 4.75081L 34.0811 4.75081C 34.7541 4.75077 35.4274 5.14202 35.5956 5.75679C 35.9883 6.93057 35.1469 8.04842 34.0249 8.04846L 32.5662 8.04835C 31.6685 8.04835 30.9393 8.77502 30.9393 9.66924L 30.9955 14.3083C 30.9954 15.2025 30.266 15.985 29.3124 15.985C 28.4147 15.985 27.6294 15.2025 27.6294 14.3083L 27.5733 9.72515C 27.5733 8.83093 26.844 8.10428 25.9463 8.10428L 24.4878 8.10431C 23.5339 8.10428 22.7485 7.32176 22.8048 6.37165C 22.8048 5.42152 23.6462 4.7508 24.5438 4.7508L 25.9464 4.75082C 26.8438 4.75075 27.5732 4.0242 27.5733 3.12993L 27.5734 1.6768C 27.5732 0.782446 28.3026 -1.1463e-05 29.2562 1.25952e-10C 30.1539 -5.06932e-07 30.9392 0.78246 30.9394 1.67681L 30.9393 3.12994C 30.9393 4.02422 31.6686 4.75081 32.5663 4.75081ZM 36.338 12.503L 36.1877 12.4733L 36.035 12.4638L 35.8826 12.4756L 35.7326 12.508L 35.589 12.5605L 35.4534 12.6315L 35.3292 12.7204L 35.2183 12.8255L 35.1223 12.9451L 35.0438 13.0759L 34.9843 13.2161L 34.944 13.3637L 34.9242 13.5151L 34.9261 13.6678L 34.9478 13.8186L 34.9905 13.965L 51.064 57.8459C 29.4658 57.3427 2.61413 58.3738 1.26214 60.866C -0.701337 64.443 -0.476947 93.9538 2.66451 96.0776C 4.31894 97.2231 22.4166 97.5447 40.3082 97.4192L 40.3222 97.419C 46.0117 97.379 51.68 97.2939 56.7918 97.1757C 78.7466 96.8392 87.7974 96.5819 87.7975 95.5748C 87.7975 95.2965 87.2503 94.8988 86.4281 94.3013C 83.9517 92.5015 78.9811 88.889 78.952 81.2654C 79.3749 72.5895 79.1837 62.9551 78.1199 60.8659C 77.3209 59.2738 66.6388 58.2941 53.476 57.9093L 37.0987 13.1988L 37.0364 13.059L 36.9556 12.9294L 36.858 12.812L 36.7454 12.7087L 36.6191 12.622L 36.4827 12.5527L 36.338 12.503ZM 43.113 10.2282C 44.6313 10.2282 45.862 9.00204 45.8621 7.48956C 45.862 5.97694 44.6312 4.75078 43.1131 4.75084C 41.595 4.75084 40.3641 5.97698 40.3642 7.48954C 40.3641 9.00202 41.5949 10.2282 43.113 10.2282ZM 63.2536 78.1365C 63.2534 80.0812 61.671 81.6576 59.7191 81.6576C 57.7672 81.6577 56.1848 80.0812 56.1847 78.1365C 56.1849 76.1918 57.767 74.6153 59.7192 74.6153C 61.6711 74.6153 63.2535 76.1918 63.2536 78.1365ZM 39.5791 81.6577C 41.531 81.6577 43.1134 80.0812 43.1136 78.1366C 43.1135 76.1919 41.5311 74.6154 39.5792 74.6154C 37.6271 74.6153 36.0449 76.1919 36.0448 78.1365C 36.0448 80.0813 37.6272 81.6577 39.5791 81.6577ZM 19.4387 81.6577C 21.3906 81.6577 22.973 80.0812 22.9731 78.1366C 22.973 76.1918 21.3907 74.6153 19.4388 74.6154C 17.4866 74.6153 15.9045 76.1919 15.9043 78.1365C 15.9044 80.0812 17.4868 81.6577 19.4387 81.6577Z"/>
<path id="path3_fill" fill-rule="evenodd" d="M 51.5606 7.73854C 53.6997 7.73849 55.4339 6.00618 55.434 3.86926C 55.4341 1.73237 53.6998 1.81631e-05 51.5605 0C 49.4213 1.54639e-05 47.6872 1.73236 47.6871 3.86925C 47.687 6.00617 49.4213 7.73852 51.5606 7.73854ZM 15.4085 27.2365L 13.4338 26.8572C 12.2186 26.6296 11.459 25.4156 11.763 24.2777L 12.1426 22.3051C 12.3704 21.0912 11.6111 19.8773 10.3959 19.6498C 9.18054 19.3462 7.96545 20.1808 7.66154 21.3947L 7.28197 23.3673C 7.05413 24.5812 5.83893 25.3398 4.69966 25.0363L 2.87688 24.657C 1.66165 24.4294 0.370511 25.1122 0.0667309 26.2502C -0.237055 27.54 0.522512 28.7539 1.81344 29.0573L 3.78834 29.4367C 5.00332 29.6643 5.7629 30.8781 5.45912 32.0162L 5.07931 33.9887C 4.85147 35.2026 5.61104 36.4165 6.82626 36.6441C 8.04137 36.9475 9.2567 36.113 9.48453 34.8992L 9.8641 32.9266C 10.0919 31.7127 11.3072 30.954 12.4464 31.2575L 14.4211 31.6368C 15.9402 31.9403 17.3832 30.7264 17.1554 29.0573C 17.0794 28.1469 16.3198 27.3882 15.4085 27.2365ZM 17.612 39.6514L 17.4562 39.6196L 17.2983 39.6044L 17.1387 39.6059L 16.9808 39.6234L 16.8259 39.6575L 16.6747 39.7083L 16.5304 39.7743L 16.3928 39.8547L 16.2652 39.9488L 16.1484 40.0566L 16.0428 40.1749L 15.9502 40.3046L 15.8719 40.4427L 15.8088 40.5884L 15.761 40.7394L 15.7292 40.8957L 15.7139 41.0534L 15.7146 41.212L 15.7329 41.3698L 15.767 41.5253L 15.8179 41.6756L 15.8832 41.8204L 15.9638 41.957L 35.182 70.986C 22.0143 71.4472 11.6449 72.4861 10.8123 74.1227C 8.68581 78.2955 9.82507 110.539 12.3313 112.436C 13.3176 113.175 35.7189 113.847 56.6486 113.912L 56.534 113.954C 61.6758 113.954 64.6849 119.985 66.7472 124.118C 67.8226 126.274 68.6406 127.913 69.3694 127.913C 70.2209 127.913 71.2088 125.77 72.4204 123.141C 74.1945 119.291 76.4486 114.4 79.4585 113.668C 86.7389 113.441 91.8724 113.047 92.7618 112.436C 96.1796 110.084 96.4074 78.0679 94.2809 74.1228C 92.7395 71.3701 62.4202 70.2528 38.752 70.8767L 18.4983 40.2834L 18.4033 40.1552L 18.2962 40.0383L 18.1769 39.9329L 18.0478 39.8411L 17.9095 39.7621L 17.7639 39.6992L 17.612 39.6514ZM 37.9262 8.80459L 38.0293 8.81594L 38.1311 8.83414L 38.2323 8.85923L 38.3309 8.89106L 38.4267 8.92977L 38.5201 8.97528L 38.6103 9.0261L 38.697 9.08376L 38.7791 9.14676L 38.8572 9.21576L 38.9294 9.28938L 38.9977 9.3675L 39.0594 9.45024L 39.1163 9.53749L 39.1665 9.62851L 39.2104 9.72183L 39.2476 9.81891L 39.2787 9.91753L 39.3022 10.0184L 39.3197 10.1209L 39.3296 10.2233L 39.3326 10.3272L 39.3282 10.4304L 39.3167 10.5336L 39.2985 10.636L 39.2734 10.7361L 39.2417 10.8348L 39.2029 10.9312L 39.1579 11.0244L 39.1064 11.114L 39.0493 11.2005L 38.9856 11.2824L 38.9171 11.3605L 38.8435 11.4334L 38.7645 11.5009L 38.6818 11.5631L 38.5953 11.6193L 38.504 11.6693L 20.504 20.8493L 20.4098 20.8933L 20.3134 20.9305L 20.2148 20.9616L 20.1138 20.9859L 20.0112 21.0026L 19.9077 21.0124L 19.8046 21.0155L 19.7004 21.0109L 19.5971 21.0003L 19.4953 20.9821L 19.3943 20.9563L 19.2965 20.9244L 19.2 20.8865L 19.1066 20.841L 19.0161 20.7901L 18.9297 20.7325L 18.8475 20.6695L 18.77 20.6004L 18.6973 20.5269L 18.6295 20.4487L 18.5673 20.3653L 18.5111 20.2788L 18.4602 20.1877L 18.4162 20.0945L 18.3791 19.9974L 18.3487 19.8987L 18.3242 19.7978L 18.3077 19.6954L 18.2977 19.5922L 18.2946 19.489L 18.2985 19.3851L 18.3098 19.2826L 18.3281 19.1803L 18.3532 19.0801L 18.385 18.9814L 18.4237 18.8851L 18.4685 18.7918L 18.5203 18.7023L 18.5779 18.6158L 18.641 18.5331L 18.7093 18.4557L 18.7831 18.3829L 18.8619 18.3153L 18.9448 18.2532L 19.0322 18.197L 19.1224 18.1469L 37.1225 8.9669L 37.2167 8.92291L 37.3133 8.88501L 37.4126 8.85463L 37.5137 8.83036L 37.6154 8.81368L 37.7187 8.8038L 37.8229 8.80078L 37.9262 8.80459ZM 74.5337 96.7314C 72.3944 96.7313 70.6603 94.999 70.6602 92.8621C 70.6602 90.7251 72.3944 88.9928 74.5338 88.9928C 76.6729 88.9928 78.4072 90.7252 78.4071 92.8621C 78.407 94.999 76.6728 96.7313 74.5337 96.7314ZM 52.6604 96.7313C 50.5211 96.7313 48.7871 94.999 48.7869 92.8621C 48.787 90.7251 50.5212 88.9928 52.6605 88.9928C 54.7996 88.9928 56.5339 90.7252 56.5338 92.8621C 56.5337 94.999 54.7996 96.7313 52.6604 96.7313ZM 26.9134 92.8621C 26.9135 94.9991 28.6476 96.7314 30.7869 96.7314C 32.926 96.7314 34.6602 94.999 34.6603 92.8621C 34.6604 90.7252 32.9261 88.9929 30.787 88.9929C 28.6476 88.9929 26.9135 90.7252 26.9134 92.8621Z"/>
<path id="path4_fill" fill-rule="evenodd" d="M 68.0004 0.0609131L 67.8273 0.0195923L 67.65 0L 67.4718 0.00280762L 67.2953 0.0272827L 67.1234 0.0734863L 66.9588 0.140686L 66.8036 0.227478L 66.6608 0.332458L 66.5331 0.454956L 66.421 0.592102L 26.7587 56.0956L 26.6656 56.2454L 26.5919 56.405L 26.5394 56.5729L 26.5082 56.7465L 26.4996 56.9222L 26.5138 57.0972L 26.5492 57.2693L 26.6068 57.4359L 26.6849 57.5934L 26.7828 57.7411L 26.8983 57.8748L 27.0296 57.993L 27.1759 58.0945L 27.3326 58.1771L 27.4994 58.2394L 27.6725 58.2808L 27.85 58.3004L 28.0279 58.2975L 28.2047 58.273L 28.3763 58.2269L 28.5409 58.1597L 28.6964 58.0729L 28.839 57.9679L 28.9667 57.8454L 29.0787 57.7082L 68.7411 2.20471L 68.8341 2.05493L 68.9078 1.89539L 68.9603 1.72742L 68.9916 1.55383L 69.0001 1.37811L 68.9859 1.20319L 68.9505 1.03101L 68.8929 0.86438L 68.815 0.706909L 68.7171 0.559204L 68.6014 0.425537L 68.4701 0.307251L 68.3241 0.20575L 68.1671 0.123169L 68.0004 0.0609131ZM 0.00377068 51.3942C 0.0926379 49.503 1.72106 48.0395 3.63732 48.127C 5.55455 48.2144 7.03819 49.8207 6.94933 51.7112C 6.8607 53.6024 5.23229 55.0659 3.31603 54.9785C 1.39952 54.8909 -0.0848524 53.2847 0.00377068 51.3942ZM 25.7901 62.8513L 23.8744 62.8513C 22.7391 62.8513 21.8168 61.9414 21.8168 60.8215L 21.8168 59.0017C 21.8168 57.8818 20.8234 56.902 19.6881 56.902C 18.482 56.902 17.5594 57.8818 17.5594 59.0017L 17.5594 60.8215C 17.5594 61.9414 16.6371 62.8513 15.5018 62.8513L 13.7281 62.8513C 12.5929 62.8513 11.5287 63.6912 11.5287 64.881C 11.4576 66.0709 12.451 67.0508 13.6571 67.0508L 15.5018 67.0508C 16.6371 67.0508 17.5594 67.9607 17.5594 69.0806L 17.6305 70.9003C 17.6305 72.0202 18.6239 73.0001 19.7591 73.0001C 20.9652 73.0001 21.8876 72.0202 21.8876 70.9003L 21.8168 69.0106C 21.8168 67.8907 22.7391 66.9808 23.8744 66.9808L 25.7191 66.9808C 27.138 66.9808 28.2025 65.5809 27.7057 64.1111C 27.4928 63.3412 26.6415 62.8513 25.7901 62.8513Z"/>
<path id="path5_fill" fill-rule="evenodd" d="M 75.8846 0.0684204L 75.6912 0.0220337L 75.4935 0L 75.2947 0.00317383L 75.0975 0.0306396L 74.9058 0.0825806L 74.7222 0.15802L 74.5489 0.255493L 74.3897 0.373474L 74.2471 0.511047L 74.1221 0.665161L 29.8611 63.0114L 29.7574 63.1797L 29.6751 63.3589L 29.6165 63.5476L 29.5816 63.7426L 29.5721 63.9399L 29.5879 64.1365L 29.6275 64.3299L 29.6917 64.517L 29.7786 64.6939L 29.888 64.8598L 30.0171 65.0099L 30.1636 65.1428L 30.3267 65.2568L 30.5015 65.3496L 30.6878 65.4196L 30.8809 65.466L 31.0789 65.488L 31.2776 65.4848L 31.4747 65.4573L 31.6663 65.4054L 31.8502 65.33L 32.0235 65.2325L 32.1827 65.1145L 32.325 64.9769L 32.4503 64.8228L 76.7112 2.47656L 76.8148 2.30829L 76.8973 2.12903L 76.9559 1.94037L 76.9905 1.74536L 77.0001 1.54803L 76.9844 1.3515L 76.9446 1.15808L 76.8807 0.970947L 76.7935 0.794067L 76.6841 0.628174L 76.5552 0.478027L 76.4087 0.345154L 76.2457 0.23114L 76.0706 0.138367L 75.8846 0.0684204ZM 0.00420607 57.7305C 0.103327 55.6061 1.92047 53.9622 4.05889 54.0605C 6.19854 54.1587 7.85406 55.9631 7.75518 58.0866C 7.65606 60.211 5.83892 61.8549 3.70025 61.7567C 1.56182 61.6584 -0.0946709 59.854 0.00420607 57.7305ZM 28.7801 70.6001L 26.6421 70.6001C 25.3753 70.6001 24.346 69.578 24.346 68.3201L 24.346 66.2759C 24.346 65.018 23.2376 63.9173 21.9708 63.9173C 20.6246 63.9173 19.5953 65.018 19.5953 66.2759L 19.5953 68.3201C 19.5953 69.578 18.566 70.6001 17.2991 70.6001L 15.3196 70.6001C 14.0528 70.6001 12.865 71.5435 12.865 72.8801C 12.7859 74.2166 13.8943 75.3174 15.2405 75.3174L 17.2991 75.3174C 18.566 75.3174 19.5953 76.3394 19.5953 77.5974L 19.6746 79.6415C 19.6746 80.8994 20.783 82.0001 22.0499 82.0001C 23.3958 82.0001 24.4253 80.8994 24.4253 79.6415L 24.346 77.5187C 24.346 76.2608 25.3753 75.2387 26.6421 75.2387L 28.701 75.2387C 30.2845 75.2387 31.4722 73.6663 30.9178 72.0153C 30.6802 71.1505 29.7303 70.6001 28.7801 70.6001Z"/>
<path id="path6_fill" fill-rule="evenodd" d="M 59.3839 101.575C 82.3181 101.224 91.7733 100.955 91.7732 99.9025C 91.7732 99.6116 91.2011 99.1959 90.3418 98.5713C 87.7529 96.6898 82.5558 92.9127 82.5272 84.9415C 82.9688 75.8737 82.7691 65.8056 81.6575 63.6221C 80.8222 61.9579 69.6562 60.9338 55.8975 60.5315L 38.7786 13.7964L 38.7134 13.6504L 38.629 13.5148L 38.527 13.3921L 38.4092 13.2841L 38.2772 13.1935L 38.1347 13.1211L 37.9835 13.0691L 37.8262 13.0381L 37.6667 13.0282L 37.5071 13.0404L 37.3506 13.0743L 37.2005 13.1292L 37.0587 13.2035L 36.9292 13.2964L 36.8128 13.4061L 36.7126 13.5311L 36.6306 13.6679L 36.5684 13.8146L 36.5262 13.9688L 36.5057 14.1271L 36.5074 14.2866L 36.5303 14.4443L 36.5749 14.5974L 53.3762 60.4654C 30.8001 59.9393 2.73263 61.0172 1.31926 63.6221C -0.733142 67.3611 -0.498473 98.2082 2.78521 100.428C 5.06578 102.007 37.2339 102.088 59.3839 101.575ZM 20.319 85.3553C 22.3594 85.3554 24.0133 83.7075 24.0134 81.6747C 24.0133 79.6419 22.3594 77.9941 20.3189 77.9941C 18.2787 77.9941 16.6246 79.6419 16.6245 81.6747C 16.6246 83.7075 18.2785 85.3553 20.319 85.3553ZM 41.3712 85.3554C 43.4116 85.3554 45.0656 83.7075 45.0656 81.6748C 45.0655 79.642 43.4116 77.9942 41.3712 77.9941C 39.3309 77.9942 37.6768 79.642 37.6767 81.6747C 37.6769 83.7075 39.3307 85.3554 41.3712 85.3554ZM 66.1176 81.6747C 66.1176 83.7075 64.4636 85.3554 62.4232 85.3553C 60.3827 85.3553 58.7289 83.7075 58.7287 81.6747C 58.7288 79.6419 60.3829 77.9941 62.4232 77.9941C 64.4636 77.9941 66.1175 79.6419 66.1176 81.6747ZM 34.0411 4.96592L 35.6244 4.96591C 36.328 4.96587 37.032 5.37489 37.2078 6.01752C 37.6182 7.24436 36.7387 8.41286 35.5659 8.41285L 34.0411 8.41284C 33.1029 8.41285 32.3405 9.17231 32.3406 10.1071L 32.3992 14.9562C 32.3993 15.8909 31.6368 16.7088 30.6401 16.7089C 29.7016 16.7088 28.8808 15.8909 28.8807 14.9561L 28.822 10.1655C 28.8222 9.23077 28.0599 8.4713 27.1214 8.47124L 25.5969 8.47127C 24.5999 8.47126 23.7789 7.6533 23.8376 6.66015C 23.8375 5.66695 24.7173 4.96591 25.6555 4.9659L 27.1215 4.96588C 28.0597 4.96586 28.8221 4.20644 28.822 3.27164L 28.8222 1.75269C 28.8221 0.817922 29.5843 -1.43518e-05 30.5813 1.91874e-10C 31.5196 -1.44655e-05 32.3406 0.817917 32.3405 1.75264L 32.3405 3.27166C 32.3406 4.20643 33.1029 4.96593 34.0411 4.96592ZM 45.0656 10.6913C 46.6525 10.6913 47.939 9.4096 47.9391 7.82861C 47.9389 6.24752 46.6525 4.96588 45.0656 4.9659C 43.4787 4.96592 42.1923 6.2476 42.1922 7.82858C 42.1921 9.4096 43.4788 10.6913 45.0656 10.6913Z"/>
<path id="path7_fill" fill-rule="evenodd" d="M 82.7829 0.0742188L 82.5722 0.0238647L 82.3562 0L 82.1394 0.00341797L 81.9243 0.0332642L 81.7153 0.0895996L 81.5148 0.171509L 81.3256 0.277344L 81.1521 0.405334L 80.9965 0.554688L 80.8601 0.721924L 32.5754 68.3905L 32.4624 68.5731L 32.3725 68.7676L 32.3085 68.9725L 32.2705 69.1841L 32.2602 69.3983L 32.2775 69.6116L 32.3208 69.8215L 32.3906 70.0246L 32.4855 70.2166L 32.6049 70.3967L 32.7456 70.5596L 32.9055 70.7039L 33.0835 70.8276L 33.2744 70.9283L 33.4772 71.0042L 33.6879 71.0546L 33.904 71.0785L 34.1208 71.0751L 34.3359 71.0452L 34.5449 70.9889L 34.7453 70.9069L 34.9345 70.8011L 35.1081 70.6732L 35.2636 70.5238L 35.4001 70.3566L 83.6848 2.68799L 83.7978 2.50537L 83.8876 2.31079L 83.9516 2.10602L 83.9897 1.89441L 84 1.68018L 83.9826 1.46686L 83.9394 1.25696L 83.8696 1.05383L 83.7746 0.861877L 83.6552 0.681824L 83.5146 0.518799L 83.3547 0.374634L 83.1767 0.250854L 82.9858 0.150208L 82.7829 0.0742188ZM 0.00459259 62.6585C 0.112503 60.3528 2.09492 58.5685 4.42793 58.6752C 6.76192 58.7819 8.56807 60.7402 8.45992 63.045C 8.35201 65.3508 6.36958 67.1351 4.03657 67.0284C 1.70357 66.9217 -0.103318 64.9633 0.00459259 62.6585ZM 31.3964 76.6267L 29.0642 76.6267C 27.6821 76.6267 26.5593 75.5174 26.5593 74.1521L 26.5593 71.9335C 26.5593 70.5681 25.3501 69.3735 23.968 69.3735C 22.4995 69.3735 21.3767 70.5681 21.3767 71.9335L 21.3767 74.1521C 21.3767 75.5174 20.2536 76.6267 18.8718 76.6267L 16.7124 76.6267C 15.3303 76.6267 14.0346 77.6507 14.0346 79.1014C 13.9482 80.552 15.1574 81.7466 16.6259 81.7466L 18.8718 81.7466C 20.2536 81.7466 21.3767 82.856 21.3767 84.2213L 21.4631 86.4399C 21.4631 87.8053 22.6723 88.9999 24.0544 88.9999C 25.5227 88.9999 26.6457 87.8053 26.6457 86.4399L 26.5593 84.136C 26.5593 82.7706 27.6821 81.6613 29.0642 81.6613L 31.31 81.6613C 33.0376 81.6613 34.3332 79.9547 33.7285 78.1627C 33.4694 77.2241 32.4328 76.6267 31.3964 76.6267Z"/>
<path id="path8_fill" fill-rule="evenodd" d="M 47.5897 7.07664L 49.8553 7.07661C 50.8621 7.07656 51.8691 7.6594 52.1208 8.57516C 52.7081 10.3235 51.4495 11.9886 49.7712 11.9886L 47.5897 11.9886C 46.2471 11.9886 45.1564 13.0709 45.1564 14.403L 45.2401 16.6508C 45.2401 17.9829 44.1493 19.1485 42.7228 19.1484C 41.3802 19.1484 40.2057 17.9829 40.2055 16.6508L 40.1217 14.4862C 40.1217 13.1542 39.031 12.0719 37.6882 12.0718L 35.5066 12.0718C 34.0801 12.0718 32.9056 10.9063 32.9893 9.49099C 32.9893 8.07567 34.2479 7.0766 35.5906 7.07662L 37.6882 7.07658C 39.0307 7.0766 40.1218 5.99433 40.1218 4.66226L 40.1218 2.49764C 40.1216 1.16551 41.2126 3.9828e-05 42.6389 1.19919e-09C 43.9814 -4.31704e-05 45.1562 1.16557 45.1562 2.49764L 45.1562 4.6622C 45.1562 5.99427 46.2472 7.07662 47.5897 7.07664ZM 27.7945 22.3436C 25.5283 22.2396 23.6025 23.9804 23.4976 26.2299C 23.3928 28.4786 25.148 30.3893 27.4145 30.4934C 29.6809 30.5974 31.6067 28.8566 31.7114 26.607C 31.8164 24.3584 30.0619 22.4477 27.7945 22.3436ZM 0.00447396 110.766C 0.109492 108.517 2.03522 106.776 4.30142 106.88C 6.56786 106.984 8.32334 108.894 8.21838 111.144C 8.1136 113.393 6.18786 115.134 3.92143 115.03C 1.65418 114.925 -0.100488 113.015 0.00447396 110.766ZM 94.3277 128.295L 96.5933 128.295C 97.6841 128.295 98.6071 128.961 98.8588 129.793C 99.4461 131.542 98.1875 133.207 96.5093 133.207L 94.3277 133.207C 92.9852 133.207 91.8944 134.289 91.8944 135.621L 91.9781 142.531C 91.9781 143.863 90.8873 145.029 89.461 145.029C 88.1182 145.029 86.9437 143.863 86.9437 142.531L 86.8597 135.704C 86.8597 134.372 85.769 133.29 84.4262 133.29L 82.2446 133.29C 80.8181 133.29 79.6436 132.124 79.7273 130.709C 79.7273 129.294 80.9859 128.295 82.3287 128.295L 84.4262 128.295C 85.7688 128.295 86.8598 127.212 86.8598 125.88L 86.8598 123.716C 86.8596 122.384 87.9506 121.218 89.3769 121.218C 90.7194 121.218 91.8942 122.384 91.8942 123.716L 91.8942 125.88C 91.8942 127.212 92.9852 128.295 94.3277 128.295ZM 38.7978 37.4026L 39.0209 37.4542L 39.235 37.5358L 39.4356 37.6457L 39.6193 37.7814L 39.7828 37.9404L 39.9221 38.1202L 40.0363 38.3175L 78.383 116.493L 78.4695 116.704L 78.5257 116.924L 78.5509 117.15L 78.5449 117.376L 78.5081 117.601L 78.441 117.819L 78.3443 118.024L 78.2203 118.216L 78.0718 118.388L 77.9005 118.539L 77.71 118.665L 77.5037 118.765L 77.2863 118.836L 77.0607 118.876L 76.8324 118.886L 76.6041 118.865L 76.381 118.813L 76.167 118.732L 75.9664 118.622L 75.7826 118.486L 75.6191 118.327L 75.4799 118.147L 75.3657 117.95L 37.0189 39.7745L 36.9325 39.5639L 36.8763 39.3432L 36.851 39.1176L 36.857 38.8903L 36.8938 38.6664L 36.961 38.449L 37.0576 38.2426L 37.1816 38.0519L 37.3301 37.8788L 37.5014 37.7281L 37.6919 37.6016L 37.8982 37.5025L 38.1155 37.4317L 38.3412 37.3909L 38.5695 37.3809L 38.7978 37.4026ZM 23.9566 41.334L 23.7771 41.304L 23.5957 41.294L 23.4145 41.3032L 23.2351 41.3315L 23.0595 41.3797L 22.8909 41.4463L 22.7299 41.5296L 22.5796 41.6312L 22.4404 41.7469L 22.3154 41.8776L 22.2053 42.0208L 22.1104 42.1756L 22.0342 42.3388L 21.9753 42.5095L 7.45916 93.8773L 7.41965 94.053L 7.39942 94.232L 7.39959 94.4127L 7.41874 94.5916L 7.4575 94.7682L 7.51445 94.9388L 7.59077 95.1028L 7.68402 95.2577L 7.79311 95.4017L 7.91812 95.5324L 8.05655 95.6498L 8.20671 95.7514L 8.36705 95.8363L 8.5357 95.9029L 8.71022 95.952L 8.88974 95.982L 9.07096 95.992L 9.25215 95.9828L 9.43176 95.9537L 9.60715 95.9062L 9.77576 95.8396L 9.93693 95.7555L 10.0872 95.6548L 10.2264 95.5382L 10.3514 95.4075L 10.4613 95.2643L 10.5562 95.1103L 10.6326 94.9472L 10.6913 94.7765L 25.2077 43.4087L 25.2472 43.2322L 25.2671 43.0531L 25.2673 42.8733L 25.2488 42.6935L 25.2101 42.5178L 25.1524 42.3464L 25.076 42.1824L 24.9828 42.0283L 24.8737 41.8843L 24.7487 41.7527L 24.6103 41.6362L 24.4609 41.5346L 24.2998 41.4497L 24.1319 41.3822L 23.9566 41.334Z"/>
<path id="path9_fill" fill-rule="evenodd" d="M 72.2432 98.262L 73.9785 98.262C 74.8138 98.2619 75.5208 98.7721 75.7136 99.4097C 76.1634 100.749 75.1993 102.024 73.9142 102.024L 72.2434 102.024C 71.215 102.024 70.3795 102.853 70.3795 103.873L 70.4438 109.166C 70.4438 110.186 69.6083 111.079 68.516 111.079C 67.4877 111.079 66.5879 110.186 66.5881 109.166L 66.5237 103.937C 66.5237 102.917 65.6882 102.088 64.66 102.088L 62.9893 102.088C 61.8967 102.088 60.9969 101.195 61.0612 100.111C 61.0612 99.0271 62.0251 98.2619 63.0535 98.2619L 64.6601 98.262C 65.6882 98.2619 66.5237 97.433 66.5237 96.4127L 66.5236 94.7548C 66.5236 93.7346 67.3591 92.8419 68.4516 92.8419C 69.4799 92.8419 70.3795 93.7346 70.3795 94.7548L 70.3796 96.4127C 70.3796 97.433 71.2151 98.262 72.2432 98.262ZM 0.00342213 84.8366C 0.0835913 83.1143 1.55853 81.7803 3.29436 81.86C 5.0302 81.9397 6.37462 83.4032 6.29429 85.1261C 6.21389 86.8483 4.73897 88.1823 3.00312 88.1026C 1.26668 88.0222 -0.0769052 86.5595 0.00342213 84.8366ZM 21.2874 17.1131C 19.5515 17.0334 18.0768 18.3668 17.9964 20.0897C 17.916 21.812 19.2604 23.2754 20.9963 23.3551C 22.7319 23.4348 24.2069 22.1015 24.2872 20.3785C 24.3676 18.6563 23.0237 17.1928 21.2874 17.1131ZM 36.4476 5.42002L 38.1829 5.42004C 38.9539 5.42001 39.7251 5.86637 39.918 6.56783C 40.3678 7.90687 39.4037 9.18213 38.1185 9.18218L 36.4478 9.18219C 35.4194 9.18218 34.5839 10.0111 34.5839 11.0313L 34.6482 12.753C 34.6482 13.7732 33.8128 14.666 32.7203 14.6659C 31.6921 14.666 30.7923 13.7732 30.7923 12.753L 30.7281 11.0951C 30.7281 10.0749 29.8925 9.2459 28.8644 9.24593L 27.1936 9.24596C 26.1011 9.24593 25.2013 8.3532 25.2656 7.26921C 25.2655 6.18518 26.2295 5.42 27.2579 5.42004L 28.8645 5.42004C 29.8926 5.42002 30.7281 4.59109 30.7281 3.57082L 30.728 1.91294C 30.728 0.892706 31.5634 -3.05544e-05 32.656 7.84321e-10C 33.6843 3.86488e-05 34.5839 0.892704 34.5839 1.91294L 34.584 3.57085C 34.584 4.59109 35.4195 5.42007 36.4476 5.42002ZM 29.7141 28.647L 29.885 28.6865L 30.0489 28.749L 30.2025 28.8331L 30.3432 28.9371L 30.4685 29.0589L 30.5753 29.1966L 30.6627 29.3477L 60.0315 89.223L 60.0976 89.3844L 60.1407 89.5527L 60.1601 89.7262L 60.1555 89.8996L 60.1273 90.0718L 60.0758 90.2382L 60.002 90.3957L 59.9068 90.5423L 59.793 90.6744L 59.662 90.7897L 59.5162 90.8867L 59.3582 90.9632L 59.1915 91.0174L 59.0188 91.048L 58.8439 91.0556L 58.6692 91.0397L 58.4982 90.9996L 58.3344 90.9377L 58.1808 90.8535L 58.0399 90.7496L 57.9146 90.6278L 57.808 90.4901L 57.7207 90.3389L 28.3518 30.4637L 28.2854 30.3023L 28.2426 30.1334L 28.2232 29.9605L 28.2277 29.7864L 28.256 29.6149L 28.3075 29.4485L 28.3813 29.2903L 28.4763 29.1443L 28.5902 29.0117L 28.7213 28.8963L 28.8671 28.7993L 29.0252 28.7235L 29.1916 28.6693L 29.3645 28.638L 29.5394 28.6304L 29.7141 28.647ZM 18.3476 31.658L 18.2102 31.6351L 18.0712 31.6274L 17.9326 31.6344L 17.7949 31.656L 17.6606 31.693L 17.5314 31.7441L 17.4082 31.8079L 17.293 31.8856L 17.1864 31.9743L 17.0908 32.0744L 17.0065 32.184L 16.9337 32.3026L 16.8754 32.4277L 16.8303 32.5583L 5.7127 71.9014L 5.68243 72.0359L 5.66688 72.173L 5.66692 72.3113L 5.6817 72.4484L 5.71139 72.5837L 5.75494 72.7143L 5.81348 72.8399L 5.88477 72.9585L 5.9684 73.0689L 6.06411 73.169L 6.17016 73.2589L 6.28525 73.3367L 6.40805 73.4018L 6.53717 73.4528L 6.67088 73.4904L 6.80828 73.5133L 6.94724 73.521L 7.08586 73.5139L 7.2235 73.4917L 7.35785 73.4554L 7.48704 73.4043L 7.61045 73.3399L 7.72542 73.2628L 7.83203 73.1735L 7.92788 73.0733L 8.0119 72.9636L 8.08472 72.8457L 8.14302 72.7207L 8.18819 72.5901L 19.3058 33.247L 19.336 33.1118L 19.3515 32.9747L 19.3515 32.8371L 19.3374 32.6993L 19.3078 32.5647L 19.2635 32.4334L 19.2049 32.3077L 19.1337 32.1898L 19.0501 32.0795L 18.9543 31.9787L 18.8483 31.8895L 18.734 31.8117L 18.6104 31.7466L 18.482 31.695L 18.3476 31.658Z"/>
<path id="path10_fill" fill-rule="evenodd" d="M 49.1326 7.31004L 51.4716 7.31006C 52.5112 7.31002 53.5508 7.91197 53.8108 8.85795C 54.4171 10.664 53.1177 12.384 51.3851 12.384L 49.1326 12.384C 47.7466 12.384 46.6203 13.5021 46.6203 14.8781L 46.7071 17.1999C 46.7071 18.5759 45.5808 19.78 44.1081 19.78C 42.7221 19.78 41.5091 18.576 41.5091 17.2001L 41.4226 14.964C 41.4226 13.588 40.2964 12.47 38.9103 12.47L 36.658 12.47C 35.1852 12.47 33.9725 11.2659 34.059 9.80403C 34.0591 8.34194 35.3584 7.31003 36.7446 7.30995L 38.9103 7.30999C 40.2963 7.31004 41.4227 6.19198 41.4225 4.81606L 41.4225 2.58009C 41.4225 1.20405 42.5488 1.93505e-05 44.0215 0C 45.4075 5.04096e-05 46.6205 1.20397 46.6204 2.57996L 46.6205 4.81598C 46.6204 6.19197 47.7466 7.30999 49.1326 7.31004ZM 28.6957 23.0807C 26.3559 22.9731 24.3677 24.7715 24.2594 27.0951C 24.1512 29.418 25.9634 31.3917 28.3033 31.4992C 30.6431 31.6068 32.6313 29.8084 32.7396 27.4847C 32.8478 25.1619 31.0365 23.1881 28.6957 23.0807ZM 0.0046098 114.419C 0.112833 112.096 2.10113 110.297 4.44091 110.405C 6.78087 110.512 8.59304 112.486 8.48479 114.81C 8.37657 117.133 6.38827 118.932 4.04849 118.824C 1.70774 118.716 -0.103639 116.743 0.0046098 114.419ZM 97.3855 132.526L 99.7246 132.526C 100.851 132.526 101.804 133.214 102.064 134.074C 102.67 135.88 101.371 137.6 99.6381 137.6L 97.3856 137.6C 95.9996 137.6 94.8733 138.718 94.8733 140.094L 94.9599 147.232C 94.9599 148.608 93.8339 149.812 92.3611 149.812C 90.9749 149.812 89.7622 148.608 89.7622 147.232L 89.6755 140.18C 89.6756 138.804 88.5494 137.686 87.1632 137.686L 84.9109 137.686C 83.4382 137.686 82.2254 136.482 82.3119 135.02C 82.3121 133.558 83.6114 132.526 84.9976 132.526L 87.1633 132.526C 88.5493 132.526 89.6756 131.408 89.6755 130.032L 89.6756 127.796C 89.6754 126.42 90.8017 125.216 92.2745 125.216C 93.6605 125.216 94.8734 126.42 94.8734 127.796L 94.8734 130.032C 94.8734 131.408 95.9995 132.526 97.3855 132.526ZM 40.0557 38.6363L 40.2861 38.6897L 40.507 38.774L 40.714 38.8875L 40.9038 39.0276L 41.0728 39.1919L 41.2165 39.3777L 41.3345 39.5814L 80.9242 120.335L 81.0135 120.553L 81.0715 120.78L 81.0975 121.014L 81.0915 121.248L 81.0534 121.48L 80.9842 121.704L 80.8845 121.917L 80.7562 122.115L 80.6029 122.293L 80.4262 122.448L 80.2295 122.579L 80.0163 122.682L 79.792 122.755L 79.5591 122.797L 79.3233 122.807L 79.0877 122.786L 78.8574 122.731L 78.6364 122.648L 78.4294 122.534L 78.2396 122.394L 78.0706 122.23L 77.9269 122.044L 77.8091 121.84L 38.2192 41.0864L 38.1299 40.8689L 38.072 40.6409L 38.0459 40.408L 38.052 40.1731L 38.0902 39.9418L 38.1595 39.7173L 38.2589 39.5041L 38.3872 39.3071L 38.5406 39.1282L 38.7173 38.9726L 38.9139 38.8418L 39.1271 38.7395L 39.3514 38.6664L 39.5844 38.6243L 39.8202 38.6139L 40.0557 38.6363ZM 24.7334 42.6972L 24.5481 42.6662L 24.3609 42.6559L 24.1739 42.6654L 23.9885 42.6946L 23.8073 42.7445L 23.6332 42.8133L 23.467 42.8993L 23.3118 43.0043L 23.1681 43.1238L 23.039 43.2588L 22.9254 43.4067L 22.8276 43.5667L 22.7487 43.7353L 22.6881 43.9115L 7.701 96.9735L 7.6604 97.1549L 7.63959 97.3398L 7.6395 97.5265L 7.65948 97.7113L 7.69941 97.8936L 7.7582 98.07L 7.83715 98.2393L 7.93325 98.3993L 8.04596 98.5481L 8.17501 98.6831L 8.31779 98.8044L 8.47306 98.9093L 8.63845 98.997L 8.81262 99.0658L 8.99272 99.1166L 9.17824 99.1475L 9.36519 99.1579L 9.55244 99.1484L 9.7377 99.1183L 9.91878 99.0693L 10.0929 99.0005L 10.2592 98.9137L 10.4143 98.8096L 10.5581 98.6892L 10.6872 98.5541L 10.8007 98.4062L 10.8987 98.247L 10.9775 98.0786L 11.038 97.9023L 26.0251 44.8404L 26.0658 44.6581L 26.0866 44.4731L 26.0866 44.2873L 26.0675 44.1016L 26.0278 43.9201L 25.968 43.743L 25.889 43.5736L 25.7929 43.4145L 25.6804 43.2656L 25.5512 43.1298L 25.4083 43.0094L 25.2542 42.9045L 25.0877 42.8168L 24.9144 42.7471L 24.7334 42.6972Z"/>
<path id="path11_fill" fill-rule="evenodd" d="M 83.2884 113.285L 85.2889 113.285C 86.2521 113.285 87.0671 113.873 87.2892 114.608C 87.8078 116.152 86.6966 117.623 85.2147 117.623L 83.2883 117.623C 82.103 117.623 81.1398 118.578 81.1399 119.755L 81.214 125.856C 81.2139 127.032 80.2508 128.062 78.9912 128.062C 77.8057 128.062 76.7686 127.032 76.7685 125.856L 76.6944 119.828C 76.6945 118.652 75.7312 117.696 74.5459 117.696L 72.6194 117.696C 71.36 117.696 70.3227 116.667 70.3969 115.417C 70.3967 114.167 71.5081 113.285 72.6936 113.285L 74.5459 113.285C 75.7312 113.285 76.6945 112.33 76.6944 111.153L 76.6943 109.242C 76.6945 108.066 77.6575 107.037 78.9171 107.037C 80.1026 107.037 81.1397 108.066 81.1398 109.242L 81.1399 111.153C 81.1398 112.33 82.103 113.285 83.2884 113.285ZM 0.003946 97.8072C 0.0966144 95.8216 1.79709 94.2838 3.79808 94.3756C 5.7993 94.4675 7.34932 96.1547 7.2567 98.141C 7.16403 100.127 5.46379 101.665 3.46256 101.573C 1.46054 101.48 -0.0886764 99.7936 0.003946 97.8072ZM 24.5417 19.7297C 22.5407 19.6379 20.8402 21.175 20.7476 23.1614C 20.6551 25.147 22.2049 26.8341 24.2061 26.926C 26.2074 27.0179 27.9077 25.4807 28.0003 23.4944C 28.0929 21.5088 26.5437 19.8216 24.5417 19.7297ZM 42.02 6.24866L 44.0205 6.24873C 44.9094 6.24866 45.7987 6.76333 46.0208 7.57192C 46.5394 9.11573 45.4283 10.586 43.9463 10.586L 42.0199 10.586C 40.8346 10.586 39.8714 11.5417 39.8715 12.7179L 39.9456 14.7028C 39.9454 15.879 38.9824 16.9083 37.7228 16.9082C 36.5373 16.9082 35.5002 15.879 35.5001 14.7028L 35.426 12.7914C 35.4261 11.6152 34.4628 10.6595 33.2775 10.6596L 31.351 10.6595C 30.0916 10.6596 29.0543 9.63034 29.1285 8.38062C 29.1283 7.13087 30.2397 6.24869 31.4253 6.24871L 33.2775 6.24871C 34.4628 6.2487 35.4261 5.29304 35.426 4.11678L 35.4259 2.20541C 35.4261 1.02921 36.3891 -2.96891e-05 37.6487 6.42311e-10C 38.8342 2.34732e-05 39.8713 1.02918 39.8714 2.20544L 39.8715 4.11681C 39.8714 5.29298 40.8346 6.2487 42.02 6.24866ZM 34.2572 33.027L 34.4542 33.0725L 34.6431 33.1446L 34.8201 33.2416L 34.9825 33.3614L 35.1268 33.5018L 35.25 33.6607L 35.3506 33.8349L 69.2096 102.864L 69.2861 103.05L 69.3356 103.245L 69.3578 103.445L 69.3527 103.644L 69.3202 103.843L 69.2609 104.035L 69.1758 104.216L 69.066 104.385L 68.9349 104.538L 68.7837 104.671L 68.6155 104.782L 68.4334 104.871L 68.2415 104.933L 68.0422 104.968L 67.8407 104.977L 67.6391 104.959L 67.442 104.913L 67.2529 104.841L 67.076 104.744L 66.9138 104.624L 66.7693 104.484L 66.6463 104.325L 66.5455 104.151L 32.6864 35.1214L 32.61 34.9353L 32.5604 34.7405L 32.5382 34.5413L 32.5433 34.3406L 32.5759 34.1429L 32.6352 33.951L 32.7205 33.7687L 32.8301 33.6003L 32.9614 33.4475L 33.1123 33.3143L 33.2805 33.2026L 33.4629 33.1152L 33.6546 33.0526L 33.8541 33.0167L 34.0556 33.0078L 34.2572 33.027ZM 21.153 36.4983L 20.9943 36.4718L 20.8342 36.4629L 20.6743 36.4711L 20.5157 36.4961L 20.3609 36.5387L 20.212 36.5975L 20.0697 36.671L 19.9369 36.7607L 19.814 36.8629L 19.7037 36.9783L 19.6066 37.1047L 19.5229 37.2415L 19.4554 37.3856L 19.4036 37.5363L 6.58596 82.8944L 6.55117 83.0495L 6.53353 83.2076L 6.53346 83.3671L 6.55045 83.5251L 6.58446 83.681L 6.635 83.8317L 6.70231 83.9765L 6.78465 84.1133L 6.88095 84.2404L 6.99127 84.3559L 7.11358 84.4595L 7.24621 84.5492L 7.38759 84.6242L 7.53659 84.683L 7.69074 84.7264L 7.84919 84.7528L 8.00932 84.7617L 8.16944 84.7536L 8.32798 84.7279L 8.48278 84.686L 8.63174 84.6271L 8.77398 84.5529L 8.90652 84.4639L 9.02942 84.361L 9.13998 84.2456L 9.23708 84.1192L 9.32059 83.9831L 9.38805 83.8391L 9.44009 83.6884L 22.2575 38.3302L 22.2922 38.1744L 22.3101 38.0163L 22.3103 37.8576L 22.2937 37.6987L 22.2598 37.5436L 22.2086 37.3922L 22.1411 37.2473L 22.059 37.1114L 21.9628 36.9842L 21.8522 36.868L 21.7299 36.7651L 21.598 36.6754L 21.4559 36.6004L 21.3076 36.5409L 21.153 36.4983Z"/>
</defs>
</svg>
